<?xml version="1.0" encoding="UTF-8" standalone="no"?>
<!-- Created with Inkscape (http://www.inkscape.org/) -->

<svg
   width="1210.8248"
   height="502.85544"
   viewBox="0 0 320.36407 133.04717"
   version="1.1"
   id="svg5"
   xml:space="preserve"
   inkscape:version="1.2.2 (732a01da63, 2022-12-09)"
   sodipodi:docname="Graphion logo.svg"
   inkscape:export-filename="OneDrive\Desktop\Graphion- WD &amp; DM Firm\Graphion website\assets\images\Graphion logo.svg"
   inkscape:export-xdpi="96"
   inkscape:export-ydpi="96"
   xmlns:inkscape="http://www.inkscape.org/namespaces/inkscape"
   xmlns:sodipodi="http://sodipodi.sourceforge.net/DTD/sodipodi-0.dtd"
   xmlns="http://www.w3.org/2000/svg"
   xmlns:svg="http://www.w3.org/2000/svg"><sodipodi:namedview
     id="namedview7"
     pagecolor="#ffffff"
     bordercolor="#000000"
     borderopacity="0.25"
     inkscape:showpageshadow="2"
     inkscape:pageopacity="0.0"
     inkscape:pagecheckerboard="0"
     inkscape:deskcolor="#d1d1d1"
     inkscape:document-units="mm"
     showgrid="false"
     inkscape:zoom="0.26708955"
     inkscape:cx="374.40626"
     inkscape:cy="333.22158"
     inkscape:window-width="1920"
     inkscape:window-height="1046"
     inkscape:window-x="-11"
     inkscape:window-y="-11"
     inkscape:window-maximized="1"
     inkscape:current-layer="g484" /><defs
     id="defs2"><rect
       x="183.45908"
       y="406.2308"
       width="808.81158"
       height="130.26677"
       id="rect634" /><rect
       x="183.45908"
       y="406.2308"
       width="808.81158"
       height="130.26677"
       id="rect636" /><rect
       x="183.45908"
       y="406.2308"
       width="808.81158"
       height="130.26677"
       id="rect638" /><rect
       x="183.45908"
       y="406.2308"
       width="808.81158"
       height="130.26677"
       id="rect640" /><rect
       x="183.45908"
       y="406.2308"
       width="808.81158"
       height="130.26677"
       id="rect642" /><rect
       x="183.45908"
       y="406.2308"
       width="808.81158"
       height="130.26677"
       id="rect644" /></defs><g
     inkscape:label="Layer 1"
     inkscape:groupmode="layer"
     id="layer1"
     transform="translate(-485.86872,-80.554245)"><g
       id="g632"
       transform="translate(430.9445,1.5569924)"
       inkscape:label="Light Logo"><g
         id="g616"
         transform="matrix(1.2350665,0,0,1.2350665,26.517133,-32.514399)"><g
           id="g600"
           transform="translate(13.34821,8.5660849)"
           inkscape:label="shadow"><text
             xml:space="preserve"
             transform="matrix(0.26458333,0,0,0.26458333,-10.990575,20.040281)"
             id="text590"
             style="font-style:normal;font-variant:normal;font-weight:bold;font-stretch:normal;font-size:133.333px;line-height:1;font-family:Orbitron;-inkscape-font-specification:'Orbitron Bold';white-space:pre;shape-inside:url(#rect634);display:inline;fill:#00fdff;fill-opacity:0.100213;stroke-width:1.13386;stroke-linecap:square;stroke-linejoin:bevel"><tspan
               x="183.45898"
               y="513.72621"
               id="tspan1926">GRAPHION</tspan></text><text
             xml:space="preserve"
             transform="matrix(0.26458333,0,0,0.26458333,-13.738406,17.534909)"
             id="text594"
             style="font-style:normal;font-variant:normal;font-weight:bold;font-stretch:normal;font-size:133.333px;line-height:1;font-family:Orbitron;-inkscape-font-specification:'Orbitron Bold';white-space:pre;shape-inside:url(#rect636);display:inline;fill:#ff37ff;fill-opacity:0.098081;stroke-width:1.13386;stroke-linecap:square;stroke-linejoin:bevel"><tspan
               x="183.45898"
               y="513.72621"
               id="tspan1928">GRAPHION</tspan></text><text
             xml:space="preserve"
             transform="matrix(0.26458333,0,0,0.26458333,-12.326023,18.768361)"
             id="text598"
             style="font-style:normal;font-variant:normal;font-weight:bold;font-stretch:normal;font-size:133.333px;line-height:1;font-family:Orbitron;-inkscape-font-specification:'Orbitron Bold';white-space:pre;shape-inside:url(#rect638);display:inline;fill:#ffffff;fill-opacity:0.098081;stroke-width:1.13386;stroke-linecap:square;stroke-linejoin:bevel"><tspan
               x="183.45898"
               y="513.72621"
               id="tspan1930">GRAPHION</tspan></text></g><path
           style="fill:#9ba4e4;stroke-width:0.287094"
           d="m 134.85206,189.07673 c 3.19759,-0.5188 8.22095,-1.72012 10.83812,-2.5919 15.75522,-5.24807 32.08524,-18.18237 42.01228,-33.27611 4.26839,-6.48994 7.41425,-13.74489 8.66382,-19.98043 0.68106,-3.39856 0.73942,-4.20185 0.62971,-8.66695 -0.115,-4.68062 -0.16946,-5.07008 -1.11382,-7.96568 -2.75301,-8.44132 -8.33238,-13.95946 -16.50523,-16.32411 -10.67988,-3.089995 -24.75249,0.19719 -38.65854,9.03015 -13.68708,8.69387 -25.79746,21.36835 -32.42579,33.93617 -4.54917,8.62558 -6.44976,18.19719 -5.0696,25.53119 0.79757,4.2382 3.09808,8.87038 5.98935,12.05984 3.26659,3.60348 8.79037,6.60235 14.25071,7.73674 2.0109,0.41777 9.80769,0.76765 11.38899,0.51109 z m 14.37859,-7.92778 c 0,-0.40814 4.00963,-3.02642 8.11466,-5.29886 3.85362,-2.13326 5.76591,-2.97235 6.06221,-2.66003 0.36514,0.38488 -3.35718,3.5202 -6.01613,5.0674 -4.2675,2.48319 -8.16074,3.86263 -8.16074,2.89149 z M 127.2107,159.58889 c 0.10747,-3.36578 2.85889,-9.33444 6.73902,-14.61894 2.29714,-3.12855 7.61528,-8.68028 10.60544,-11.07125 4.32377,-3.45735 10.46639,-7.11912 14.43828,-8.60701 3.67143,-1.37534 8.24799,-2.24644 10.02326,-1.90783 0.9948,0.18975 1.00021,0.19899 0.82189,1.40795 -0.69929,4.74129 -6.71098,14.29943 -12.41788,19.74351 -3.28973,3.13822 -9.26825,7.93074 -12.46093,9.98896 -5.99456,3.86449 -13.22375,6.71252 -16.65639,6.56198 l -1.1389,-0.05 z m 17.85508,-0.0849 c 0.24706,-0.40643 6.74648,-4.76865 6.88903,-4.62372 0.20708,0.21054 -2.60381,2.33719 -4.85507,3.67324 -2.09383,1.24262 -2.25825,1.31945 -2.03396,0.95048 z m -31.88582,-9.16165 c -0.0866,-0.22953 -0.11464,-0.62686 -0.0622,-0.88296 0.0831,-0.4064 0.16454,-0.41388 0.63979,-0.0588 0.33608,0.25112 0.47574,0.58911 0.36484,0.88295 -0.22175,0.58754 -0.73083,0.61929 -0.94239,0.0588 z m 29.50203,-20.8257 c 0,-0.65657 2.20363,-2.69479 3.77332,-3.49008 1.4594,-0.7394 2.49062,-0.95006 2.49062,-0.5088 0,0.58193 -3.65991,3.47423 -5.18207,4.09522 -0.91827,0.37462 -1.08187,0.36006 -1.08187,-0.0963 z"
           id="path602" /><path
           style="fill:#5e92dc;stroke-width:0.287094"
           d="m 134.3153,188.6708 c 3.44511,-0.34855 10.44105,-2.09353 13.88999,-3.46454 12.12244,-4.81886 25.28679,-14.52536 33.9581,-25.0384 6.5916,-7.99162 11.80331,-17.87181 13.66664,-25.90881 0.87582,-3.77764 1.20048,-10.20139 0.68104,-13.47518 -1.11699,-7.03995 -4.78753,-13.19414 -10.07047,-16.88461 -1.88292,-1.31534 -4.74621,-2.59613 -6.22501,-2.78453 l -1.23121,-0.15686 1.24006,0.5853 c 1.75805,0.8298 4.5968,2.6455 4.5968,2.94018 0,0.32829 -0.38758,0.31636 -0.72605,-0.0224 -0.14877,-0.14888 -1.46483,-0.87736 -2.92458,-1.61884 -1.72374,-0.87557 -2.60443,-1.47975 -2.51241,-1.72356 0.17832,-0.47248 -2.46561,-1.26068 -4.99094,-1.487887 -0.99054,-0.08912 -3.65882,-0.03247 -5.9295,0.125896 -6.32881,0.441391 -13.04897,2.477291 -20.23049,6.128921 -8.40617,4.27433 -17.20424,10.85411 -24.58787,18.38844 -8.47645,8.64947 -15.26381,19.28426 -18.01225,28.22257 -1.25527,4.08232 -1.6539,6.79623 -1.63702,11.14513 0.0149,3.85074 0.10384,4.63717 0.78528,6.94761 1.36904,4.64175 2.78916,7.16574 5.7148,10.15694 2.9117,2.97696 5.69228,4.79393 9.45443,6.17799 4.07878,1.50054 10.34933,2.22629 15.09066,1.74659 z m 13.20701,-6.63227 c 0,-1.00236 6.51894,-5.24268 13.21064,-8.59303 4.19443,-2.10003 5.1497,-2.06665 3.56477,0.12455 -2.35021,3.2492 -12.47867,8.96174 -15.99242,9.01986 -0.59077,0.01 -0.78299,-0.12559 -0.78299,-0.55138 z M 123.93728,181.59 c 0.31179,-0.31699 2.9684,-0.65987 3.90955,-0.50459 0.82747,0.13652 0.90462,0.20369 0.44424,0.38676 -0.61131,0.24309 -4.5827,0.35058 -4.35379,0.11783 z m 6.64391,-1.01352 c 0.0968,-0.15922 0.30409,-0.28949 0.46069,-0.28949 0.1566,0 0.20554,0.13027 0.10876,0.28949 -0.0968,0.15921 -0.3041,0.28948 -0.4607,0.28948 -0.1566,0 -0.20554,-0.13027 -0.10875,-0.28948 z m -14.75306,-1.31411 c -1.46323,-0.70472 -2.89431,-1.54409 -3.18018,-1.86525 -0.28587,-0.32116 -0.87595,-0.58393 -1.31128,-0.58393 -1.21912,0 -2.09192,-0.43987 -3.22362,-1.62463 -1.67757,-1.75621 -1.71981,-3.37272 -0.0715,-2.73555 1.14369,0.44209 0.97401,-0.19383 -0.52958,-1.98478 -0.70827,-0.84363 -1.42476,-1.79413 -1.5922,-2.11222 -0.48165,-0.915 -0.997,-7.39304 -0.74352,-9.34609 0.7197,-5.54527 1.98161,-10.38207 3.24761,-12.4478 0.66487,-1.08488 0.69721,-1.10315 0.51264,-0.28949 -1.38251,6.09458 -1.55931,8.58261 -0.83261,11.71739 0.96712,4.17197 3.5329,6.68016 8.292,8.1059 l 1.94211,0.58183 -1.79432,-0.17316 c -0.98687,-0.0952 -2.46032,-0.36754 -3.27433,-0.60512 -0.81401,-0.23758 -2.05658,-0.53736 -2.76128,-0.66618 -0.70469,-0.12882 -1.56954,-0.32685 -1.92189,-0.44008 -0.81526,-0.26199 -0.84745,0.39424 -0.0997,2.03278 0.60862,1.33367 1.92719,2.68736 3.89769,4.00149 0.97818,0.65236 1.45817,1.20113 1.65104,1.88765 0.16464,0.58599 0.7707,1.38558 1.53596,2.02639 0.69569,0.58256 1.5013,1.61164 1.79176,2.28878 0.49857,1.16229 0.59277,1.23031 1.70398,1.23031 0.71672,0 1.4862,-0.22439 1.9696,-0.57436 1.11049,-0.80396 4.02366,-1.4427 6.60293,-1.44775 2.49535,-0.005 3.08451,0.15234 3.08301,0.82277 -0.003,1.09233 -1.0821,2.29205 -2.46759,2.74202 -1.8772,0.60965 -1.98885,0.62214 -6.12289,0.685 l -3.64345,0.0554 z m 0.80155,-6.79144 c -0.0968,-0.15922 0.0878,-0.28949 0.41028,-0.28949 0.32244,0 0.58625,0.13027 0.58625,0.28949 0,0.15921 -0.18462,0.28948 -0.41028,0.28948 -0.22566,0 -0.48947,-0.13027 -0.58625,-0.28948 z m 4.85327,-2.87352 c -0.0897,-0.14749 0.57545,-0.35452 1.47801,-0.46006 0.90255,-0.10553 2.08945,-0.29788 2.63754,-0.42742 0.5481,-0.12955 1.70123,-0.30326 2.56253,-0.38604 l 1.56598,-0.1505 -1.56598,0.43982 c -0.8613,0.2419 -2.591,0.60761 -3.84379,0.81268 -1.25279,0.20507 -2.36633,0.38789 -2.47453,0.40627 -0.10821,0.0184 -0.2701,-0.0873 -0.35976,-0.23475 z m 8.38642,-1.59022 c 0,-0.0668 0.67267,-0.34211 1.49481,-0.61176 2.08689,-0.68449 2.89464,-1.2333 2.50955,-1.70507 -0.33131,-0.40587 0.54418,-1.01203 5.67628,-3.93005 3.66694,-2.08495 8.76111,-5.55671 13.33105,-9.08533 4.88041,-3.76835 5.71912,-4.35454 5.92742,-4.14276 0.0941,0.0957 0.0806,0.66498 -0.0301,1.26502 -0.15852,0.85912 -0.72553,1.62071 -2.66788,3.58338 -1.35661,1.37081 -3.23717,3.01936 -4.179,3.66345 -3.21879,2.2012 -10.46289,6.17569 -13.94743,7.65228 -1.5256,0.64648 -2.07857,0.9952 -1.6745,1.05599 0.8679,0.13059 4.40135,-1.18801 6.86018,-2.56005 1.16155,-0.64815 2.26322,-1.12717 2.44817,-1.0645 0.86211,0.29218 -5.36164,3.3598 -10.47805,5.16452 -1.93904,0.68396 -5.27046,1.13583 -5.27046,0.71488 z m -7.68756,-5.4366 c -0.28621,-0.18056 -0.0514,-0.2165 0.71181,-0.10896 0.62639,0.0883 1.56287,0.16191 2.08106,0.16366 0.52156,0.002 0.86756,0.1259 0.77506,0.27807 -0.19481,0.32048 -2.93801,0.0646 -3.56793,-0.33277 z m 4.60696,-2.37517 c -0.0527,-0.6543 0.22715,-2.17831 0.6644,-3.61855 4.40717,-14.51666 21.63403,-29.98278 36.92707,-33.15279 2.25286,-0.46698 4.67186,-0.59045 5.46967,-0.27919 0.61357,0.23938 0.56983,1.39046 -0.14343,3.77419 -0.77846,2.60163 -2.20276,5.25826 -5.09919,9.5111 -3.9704,5.82974 -5.80882,7.81424 -11.56621,12.48516 -4.67009,3.78881 -7.28933,5.63707 -10.78203,7.6083 -5.5841,3.15157 -10.70738,4.97489 -13.67094,4.86532 l -1.70835,-0.0632 z m 53.47688,-2.13428 c 0,-0.61756 0.24906,-1.00338 3.37937,-5.23482 2.25772,-3.05191 2.98192,-3.80111 3.33109,-3.4461 0.50945,0.51796 -2.59454,5.61527 -4.76222,7.82043 -1.44028,1.46518 -1.94824,1.68954 -1.94824,0.86049 z m -68.44813,-3.05333 c -0.92873,-1.27091 -0.83196,-4.78952 0.22218,-8.07868 0.86711,-2.70556 2.41432,-5.61043 2.88163,-5.41022 0.17667,0.0757 0.28459,2.37409 0.28438,6.0564 -2.8e-4,5.63776 -0.0331,5.99681 -0.65534,7.18251 -0.5474,1.04307 -0.77658,1.23328 -1.39512,1.15794 -0.40897,-0.0498 -1.00752,-0.45607 -1.33773,-0.90795 z m 3.81562,-0.9362 c 0,-0.24822 0.12813,-0.3708 0.28472,-0.2724 0.1566,0.0984 0.28473,0.3015 0.28473,0.45132 0,0.14981 -0.12813,0.27239 -0.28473,0.27239 -0.15659,0 -0.28472,-0.20309 -0.28472,-0.45131 z m 9.54957,-10.04248 c 0.39428,-1.33731 2.97832,-4.93331 2.97832,-4.14468 0,0.23827 -1.92854,3.86263 -2.35944,4.43416 -0.44509,0.59036 -0.82578,0.41229 -0.61888,-0.28948 z m 41.27406,-6.03439 c 7.3361,-10.75928 10.16248,-18.35014 9.25494,-24.85614 -0.74851,-5.3659 -3.94776,-8.41277 -9.75969,-9.29482 -3.2691,-0.49614 -3.53626,-0.56981 -3.05056,-0.84124 0.23269,-0.13003 1.49061,-0.45626 2.79538,-0.72495 4.2359,-0.87232 7.33696,0.0107 10.32734,2.94076 3.14858,3.08505 4.13664,5.71011 3.88923,10.33279 -0.11271,2.10597 -0.3443,3.17241 -1.14221,5.25981 -1.89686,4.96235 -4.4674,9.3552 -8.37755,14.31655 -2.10464,2.67045 -6.65912,7.60571 -6.84474,7.41699 -0.0631,-0.0642 1.24542,-2.11157 2.90786,-4.54975 z m -34.59432,2.83564 c 0,-0.98921 2.29346,-3.657 3.57305,-4.15624 0.42516,-0.16587 0.46932,-0.0769 0.30075,0.60593 -0.2758,1.11726 -1.27427,2.43012 -2.45018,3.2217 -1.16275,0.78272 -1.42362,0.84293 -1.42362,0.32861 z m 9.96536,-10.95575 c 0,-0.79151 2.75821,-3.48552 4.39173,-4.28952 1.50203,-0.73927 3.4236,-1.08196 3.68213,-0.65666 0.2904,0.47774 -0.80201,1.62365 -3.06235,3.21235 -2.27121,1.59632 -4.41145,2.69784 -4.78536,2.46289 -0.12438,-0.0782 -0.22615,-0.40623 -0.22615,-0.72906 z m -15.48142,-5.81989 c 0.7133,-1.21725 2.85161,-3.42716 5.53603,-5.72138 8.5348,-7.29421 20.29717,-13.3299 25.43584,-13.05204 0.51482,0.0279 0.5175,0.0573 0.0526,0.57956 -0.26937,0.30263 -0.38532,0.60443 -0.25767,0.67068 0.12765,0.0662 1.32116,0.0392 2.65225,-0.0602 2.6819,-0.20014 5.87674,0.0588 7.74399,0.62756 1.48859,0.45344 4.03052,2.81868 3.88174,3.6119 -0.0596,0.31757 -0.38769,0.56846 -0.8091,0.61864 -0.3899,0.0464 -0.96516,0.19186 -1.27836,0.32319 -0.31319,0.13133 -0.95382,0.35947 -1.42362,0.50697 -0.62394,0.19591 -0.84808,0.44041 -0.83157,0.90712 0.0281,0.79346 -0.43904,0.81373 -1.38156,0.06 -0.90337,-0.72247 -2.15224,-0.7601 -2.40181,-0.0724 -0.24728,0.68142 -0.6528,0.93109 -1.52088,0.93639 -0.39932,0.002 -0.84776,0.11739 -0.99653,0.25544 -0.32117,0.29803 -2.91414,1.19641 -3.45318,1.19641 -0.62502,0 -0.42535,-0.42472 0.44556,-0.94778 0.55718,-0.33463 0.88107,-0.81413 1.00552,-1.4886 0.27475,-1.48899 2.17548,-2.6758 4.66745,-2.91435 1.04747,-0.10026 2.21421,-0.31232 2.59277,-0.47124 0.68773,-0.2887 0.68783,-0.28941 0.12023,-0.86649 -0.31243,-0.31765 -1.32154,-0.7776 -2.24245,-1.02211 -3.81455,-1.01276 -10.56778,0.5403 -17.26373,3.97021 -5.68188,2.91047 -11.86563,6.77631 -17.03529,10.64981 -2.55667,1.91564 -3.72215,2.52846 -3.23826,1.7027 z m 20.69252,-1.38174 c 0.83798,-0.67017 4.43979,-2.43592 4.6119,-2.26094 0.13029,0.13248 -4.70704,2.83052 -5.09226,2.84024 -0.13856,0.003 0.0776,-0.25719 0.48036,-0.5793 z m 22.30326,-6.49018 c -1.905,-1.58709 -1.7402,-2.62439 0.20235,-1.27366 2.02945,1.41116 3.03261,3.22113 2.5832,4.66077 -0.17281,0.55357 -0.27794,0.44906 -0.83184,-0.827 -0.40071,-0.92313 -1.11967,-1.86525 -1.95371,-2.56011 z m -15.36514,3.00441 c 1.39584,-0.90912 3.92834,-1.71825 5.37796,-1.71825 1.79488,0 1.53235,0.61188 -0.46692,1.08826 -5.95904,1.41991 -6.16428,1.44624 -4.91104,0.62999 z m 38.94996,-1.3564 c 0.34781,-2.41402 1.00055,-2.45597 1.22522,-0.0787 0.13475,1.42575 0.12235,1.45378 -0.64297,1.45378 -0.76895,0 -0.77747,-0.0201 -0.58225,-1.37505 z m -42.39179,-0.24808 c -1.44134,-0.56234 0.91151,-2.056 3.69951,-2.34856 1.69853,-0.17823 1.9048,0.0529 0.90195,1.01081 -1.23637,1.18092 -3.39495,1.80847 -4.60146,1.33775 z m 18.48382,-17.19332 c -0.0994,-0.16351 0.1338,-0.28949 0.53584,-0.28949 0.3915,0 0.791,0.13027 0.88778,0.28949 0.0994,0.1635 -0.1338,0.28948 -0.53584,0.28948 -0.3915,0 -0.791,-0.13027 -0.88778,-0.28948 z"
           id="path604" /><path
           style="fill:#8961d0;stroke-width:0.287094"
           d="m 136.59448,188.24772 c 3.65352,-0.58147 8.4741,-1.80574 11.01416,-2.79725 2.61409,-1.0204 11.77206,-5.72282 12.59286,-6.46615 0.17581,-0.15922 1.05961,-0.68029 1.964,-1.15794 3.59532,-1.89884 10.99344,-8.01646 15.98346,-13.21696 7.89464,-8.22764 12.8103,-16.24008 16.22215,-26.44177 1.19338,-3.56831 2.39714,-10.02867 2.40042,-12.8826 0.007,-6.01827 -3.01845,-13.91335 -6.96671,-18.18053 -1.22487,-1.32381 -2.70991,-2.58948 -3.60452,-3.07205 l -1.52142,-0.82069 1.35914,1.35554 c 1.33402,1.33048 1.54069,2.09507 0.47317,1.75059 -0.69904,-0.22558 -3.42141,-1.89359 -4.66689,-2.85945 -0.53417,-0.41424 -1.109,-0.75316 -1.2774,-0.75316 -0.1684,0 -0.8368,-0.3908 -1.48534,-0.86845 -0.88542,-0.65212 -1.04439,-0.87565 -0.63816,-0.89736 0.29754,-0.0159 -0.22777,-0.28763 -1.16736,-0.60385 -1.92376,-0.64743 -7.82993,-1.102412 -7.82993,-0.603174 0,0.161415 0.5125,0.376804 1.1389,0.478644 1.05305,0.1712 1.44205,0.53263 0.92378,0.85829 -0.39635,0.24905 -3.33805,-0.43356 -3.83896,-0.89081 -0.63313,-0.577956 -3.70079,-0.333194 -5.74037,0.45801 l -1.39507,0.54118 3.24578,0.21218 c 4.35893,0.28496 7.53838,0.83247 9.29437,1.6005 1.66927,0.73011 4.78385,3.82414 5.68677,5.64926 1.62376,3.28218 1.62754,7.93931 0.01,12.17123 -1.89686,4.96235 -4.4674,9.3552 -8.37755,14.31655 -2.10464,2.67045 -6.65912,7.60571 -6.84474,7.41699 -0.0631,-0.0642 1.24541,-2.11157 2.90786,-4.54975 5.92536,-8.69025 8.52217,-14.39917 9.24688,-20.32864 0.57985,-4.74431 -0.54643,-8.64016 -3.1988,-11.06473 -1.65893,-1.51645 -3.73567,-2.35253 -7.11024,-2.86253 -1.38572,-0.20942 -2.59146,-0.45394 -2.67943,-0.54338 -0.088,-0.0894 0.33346,-0.29157 0.93651,-0.44916 0.60305,-0.1576 1.35271,-0.35743 1.66591,-0.44407 0.76082,-0.21048 -4.74254,0.038 -6.54867,0.2957 -1.3266,0.18926 -1.39598,0.169 -1.018,-0.29719 0.37195,-0.45876 0.33649,-0.48471 -0.42708,-0.3125 -3.45194,0.77849 -11.5269,4.67591 -16.7773,8.09765 -8.577,5.58971 -13.21793,9.64208 -20.0589,17.51503 -4.50868,5.18883 -7.40438,9.8969 -10.05966,16.35584 -5.3525,13.01991 -1.224,21.82293 10.24784,21.85101 1.1292,0.003 3.33682,-0.13696 4.90583,-0.3105 1.569,-0.17355 3.01545,-0.2578 3.21432,-0.18723 0.19887,0.0706 -0.91968,0.55359 -2.48567,1.07339 -2.58226,0.85713 -3.17848,0.94631 -6.4063,0.95827 -3.29552,0.0122 -8.6598,-0.71542 -10.36642,-1.40614 -0.48409,-0.19592 -0.5239,-0.12073 -0.36467,0.68874 0.2954,1.50167 1.49437,3.11308 3.03205,4.07504 0.79798,0.49921 1.57228,1.23231 1.72067,1.62911 0.32905,0.87993 0.50127,0.88782 2.1036,0.0963 1.05712,-0.52217 1.46863,-0.58155 2.49896,-0.36056 2.3373,0.5013 0.9056,1.77124 -1.6138,1.43146 l -1.1389,-0.15359 0.7648,0.64998 c 0.42064,0.35749 1.03062,1.28284 1.35552,2.05633 0.68207,1.62383 0.66764,1.62232 4.71307,0.4933 2.70679,-0.75542 7.31889,-1.09289 8.50138,-0.62204 0.73116,0.29113 0.79565,0.42238 0.63512,1.2924 -0.1992,1.0796 0.0874,1.46359 1.32873,1.78035 0.42977,0.10968 0.7814,0.30397 0.7814,0.43177 0,0.44703 -1.86415,1.82847 -3.40616,2.52416 -0.8555,0.38596 -1.72762,0.95166 -1.93804,1.2571 -0.49836,0.72341 -1.83439,0.71177 -3.44218,-0.03 -1.37186,-0.63291 -3.45946,-0.74338 -4.83497,-0.25586 -0.75325,0.26698 -1.10216,0.21417 -2.21992,-0.33597 -0.7294,-0.359 -2.17215,-0.74353 -3.2061,-0.85451 -1.03394,-0.11098 -2.43758,-0.49036 -3.1192,-0.84308 -1.08803,-0.56301 -1.22152,-0.73587 -1.09361,-1.41616 0.13759,-0.73183 -0.53588,-2.36723 -0.97485,-2.36723 -0.10746,0 -0.78453,-0.80606 -1.5046,-1.79125 -1.24039,-1.69708 -1.5855,-2.63272 -1.08671,-2.94614 0.62885,-0.39514 0.29621,-1.932 -0.76928,-3.55425 -1.57383,-2.39622 -1.80364,-3.61442 -1.66567,-8.82931 0.10896,-4.11813 0.19602,-4.71014 1.18182,-8.03678 0.58531,-1.97514 1.3129,-4.0868 1.61686,-4.69258 0.59665,-1.18907 0.74409,-2.01386 0.2747,-1.53662 -0.31129,0.31649 -2.59684,5.91234 -2.41481,5.91234 0.0639,0 -0.0202,0.35824 -0.18681,0.79609 -0.16663,0.43784 -0.3519,1.04313 -0.41172,1.34508 -0.0598,0.30195 -0.23175,0.95329 -0.38207,1.44742 -0.15032,0.49413 -0.48709,2.45435 -0.7484,4.35606 -0.69723,5.07435 -0.33405,8.06432 1.63703,13.47717 1.33259,3.65947 2.75563,5.75118 6.44898,9.47935 2.36033,2.38257 7.83313,4.87287 12.51358,5.69409 3.10788,0.5453 9.12408,0.55705 12.47109,0.0244 z m -17.67316,-3.73434 c -0.96408,-0.44524 -1.05419,-0.5599 -0.62975,-0.80139 0.62201,-0.35392 2.04213,-0.0519 2.64679,0.56283 0.42223,0.4293 0.41629,0.4837 -0.0741,0.67858 -0.29324,0.11652 -0.59722,0.18209 -0.67552,0.1457 -0.0783,-0.0364 -0.64863,-0.29996 -1.26741,-0.58572 z m 28.03154,-0.89732 c 0,-0.23882 -0.13704,-0.43423 -0.30453,-0.43423 -0.77875,0 0.0211,-1.39848 1.48435,-2.59536 3.0942,-2.53091 14.91446,-9.16699 16.81552,-9.4405 0.58965,-0.0848 1.14659,0.0304 1.49737,0.3098 0.53763,0.42822 0.47368,0.5321 -1.70835,2.7755 -3.10796,3.19536 -4.19789,3.95811 -9.66774,6.76561 -4.06219,2.08499 -5.48992,2.6304 -7.90308,3.01901 -0.11745,0.0189 -0.21354,-0.16101 -0.21354,-0.39983 z m 21.35435,-12.88204 c 1.04295,-0.8926 2.5342,-1.28839 1.69818,-0.4507 -0.49587,0.49684 -2.00716,1.31808 -2.40999,1.30959 -0.1566,-0.003 0.16371,-0.3898 0.71181,-0.85889 z m -48.68792,-1.15242 c 0,-0.3027 0.17717,-0.35679 3.28425,-1.0025 1.10166,-0.22895 2.95948,-0.86038 4.12851,-1.40318 1.16903,-0.54279 2.76614,-1.2209 3.54914,-1.50689 2.33854,-0.85418 8.13959,-3.72055 11.14257,-5.50568 6.72816,-3.99957 14.22997,-9.78573 18.68873,-14.41465 1.53035,-1.58875 2.856,-2.81386 2.9459,-2.72246 0.0899,0.0914 -0.42182,0.76123 -1.13715,1.48851 -0.98844,1.00497 -1.40748,1.72199 -1.74597,2.98753 -0.24496,0.91585 -0.64788,2.07855 -0.89537,2.58376 -0.66731,1.36221 -9.22725,10.00075 -11.27931,11.38288 -4.14523,2.79195 -12.81785,6.48631 -16.92653,7.21036 -0.90588,0.15964 -2.67206,0.36917 -3.92485,0.46561 -1.25278,0.0964 -2.98249,0.2818 -3.84378,0.4119 -2.26122,0.34157 -3.98614,0.35231 -3.98614,0.0248 z m 2.5118,-6.13213 c -0.4194,-0.16227 -0.83328,-0.48246 -0.91973,-0.71152 -0.13305,-0.35251 0.29031,-0.38923 2.7556,-0.23905 2.71158,0.16518 7.95542,-0.33609 9.39617,-0.8982 0.98707,-0.3851 0.46158,0.20196 -0.57533,0.64274 -3.69394,1.57026 -8.35271,2.0975 -10.65671,1.20603 z m 4.65768,-3.25405 c -0.0527,-0.6543 0.22715,-2.17831 0.6644,-3.61855 4.40717,-14.51666 21.63403,-29.98278 36.92707,-33.15279 2.64132,-0.5475 5.06471,-0.58688 5.72721,-0.0931 0.4276,0.31873 0.44829,0.56595 0.17362,2.07443 -0.35626,1.9565 -1.54557,5.457 -2.21988,6.53375 -0.25063,0.40022 -1.05079,1.50928 -1.77814,2.46458 -0.72734,0.9553 -2.06325,2.90931 -2.9687,4.34226 -2.11934,3.35404 -4.50066,5.84644 -8.62264,9.02485 -1.82207,1.40498 -3.61372,2.81504 -3.98144,3.13347 -6.46058,5.59467 -18.11432,11.08892 -22.44726,10.58295 -1.37124,-0.16012 -1.38403,-0.17133 -1.47424,-1.2919 z m 53.47688,-2.13428 c 0,-0.61756 0.24906,-1.00338 3.37937,-5.23482 2.25772,-3.05191 2.98192,-3.80111 3.33109,-3.4461 0.0755,0.0767 -0.11264,0.73222 -0.41805,1.45661 -0.3054,0.7244 -0.49631,1.37703 -0.42425,1.45031 0.25159,0.25578 -3.05115,4.41456 -4.2412,5.34049 -1.38511,1.07769 -1.62696,1.14213 -1.62696,0.43351 z m -63.72696,-2.33058 c -0.05,-0.34577 0.0304,-0.62867 0.17868,-0.62867 0.43674,0 0.97444,0.81583 0.7649,1.16054 -0.29372,0.48319 -0.84135,0.17451 -0.94358,-0.53187 z m -5.28636,0.12332 c -0.0944,-0.38249 -0.0883,-1.11922 0.0136,-1.63718 0.11289,-0.57387 0.0786,-0.87472 -0.0878,-0.77018 -0.4838,0.30401 0.13328,-4.1544 0.9221,-6.66213 0.8079,-2.56842 2.35899,-5.46347 2.82109,-5.26548 0.17667,0.0757 0.2846,2.37409 0.28438,6.0564 -2.8e-4,5.61423 -0.0352,6.0008 -0.64641,7.16473 -0.78533,1.49548 -1.69148,1.64439 -2.64222,0.43422 l -0.62542,-0.79608 0.21674,0.72371 c 0.11921,0.39804 0.27693,0.88655 0.35049,1.08557 0.0736,0.19902 0.006,0.36185 -0.15056,0.36185 -0.15638,0 -0.36158,-0.31294 -0.456,-0.69543 z m 4.38081,-1.78227 c 0,-0.24822 0.12813,-0.3708 0.28472,-0.2724 0.1566,0.0984 0.28473,0.3015 0.28473,0.45132 0,0.14981 -0.12813,0.27239 -0.28473,0.27239 -0.15659,0 -0.28472,-0.20309 -0.28472,-0.45131 z m 10.70659,-4.0407 c 0.36532,-0.56687 0.54394,-0.65944 0.72191,-0.37412 0.40601,0.6509 0.26978,1.65813 -0.39542,2.92365 l -0.64063,1.21877 -0.0856,-1.50753 c -0.0597,-1.05157 0.0612,-1.73536 0.39978,-2.26077 z m -3.17977,2.03358 c -0.1026,-0.55606 -0.10617,-1.22397 -0.008,-1.48424 0.15196,-0.40262 0.28408,-0.35753 0.88545,0.30221 0.78376,0.85982 0.87604,1.32627 0.36518,1.84566 -0.60309,0.61318 -1.05126,0.37385 -1.2427,-0.66363 z m 6.1407,-2.89898 c 0.4679,-1.25123 1.1742,-2.51851 1.32066,-2.3696 0.14944,0.15194 -1.24033,3.09527 -1.46151,3.09527 -0.0718,0 -0.008,-0.32655 0.14085,-0.72567 z m -4.95927,-3.97844 c 0.87493,-2.527 4.92044,-8.39052 4.94327,-7.16473 0.0184,0.98955 -4.60323,8.39503 -5.23922,8.39503 -0.0715,0 0.0617,-0.55363 0.29595,-1.2303 z m 64.18127,0.78782 c 0,-0.34452 1.81839,-3.81906 2.43801,-4.65849 0.59975,-0.81251 1.83373,-1.50178 1.83229,-1.02346 -5.7e-4,0.21056 -2.04995,3.42288 -3.12224,4.89413 -0.61277,0.84076 -1.14806,1.20808 -1.14806,0.78782 z m -56.66021,-5.07674 c 0,-0.92708 2.02137,-3.59458 3.18914,-4.20855 0.46746,-0.24577 0.88609,-0.40468 0.9303,-0.35314 0.16771,0.19555 -0.94563,3.21482 -1.32927,3.60487 -0.22096,0.22466 -0.70551,0.46794 -1.07679,0.54064 -0.37127,0.0727 -0.80617,0.26549 -0.96643,0.42843 -0.37846,0.38479 -0.74695,0.37874 -0.74695,-0.0123 z m 62.76221,-11.87733 c 0.10381,-0.93281 0.39357,-2.38293 0.64393,-3.2225 0.45469,-1.52477 0.45548,-1.5255 0.70885,-0.65802 0.32066,1.09789 0.0215,4.3153 -0.52478,5.64494 -0.37579,0.91459 -0.44552,0.96056 -0.71651,0.4724 -0.18118,-0.32636 -0.22538,-1.21328 -0.11149,-2.23682 z m -53.5382,1.93529 c -0.4347,-1.15174 2.43795,-4.32005 5.15887,-5.68984 2.63349,-1.32577 4.90879,-1.18222 4.14871,0.26174 -0.60715,1.15343 -5.57717,4.67324 -7.6745,5.43513 -1.33019,0.48322 -1.44823,0.48271 -1.63308,-0.007 z m -19.17576,-3.09159 c 0.55435,-1.05312 7.41671,-7.80552 10.37883,-10.21252 6.36836,-5.17488 13.81599,-9.46561 20.35782,-11.72855 1.20799,-0.41786 6.36007,-1.48125 7.17662,-1.48125 0.32235,0 0.99254,0.2554 1.48931,0.56755 0.49677,0.31215 1.85722,0.71701 3.02322,0.89969 5.69848,0.89277 8.32993,3.22086 9.07158,8.02575 0.47776,3.09525 -0.51679,8.8966 -1.82685,10.65621 -0.36696,0.49289 -0.40975,0.32733 -0.41931,-1.62223 -0.006,-1.19412 -0.15033,-2.6922 -0.32107,-3.32906 -0.60638,-2.26187 -2.59942,-3.61855 -5.31586,-3.61855 -1.27244,0 -1.81039,-0.13677 -2.27723,-0.57897 -0.33618,-0.31843 -0.97658,-0.57897 -1.42311,-0.57897 -1.33403,0 -5.52782,1.18475 -6.60659,1.86637 -2.45541,1.55145 -4.85173,1.9262 -5.69683,0.89091 -0.81781,-1.00188 3.17883,-3.04676 5.95477,-3.04676 2.40204,0 3.53723,-1.7033 1.44638,-2.1702 -1.43512,-0.32048 -0.8225,-0.85741 1.15706,-1.01412 1.00561,-0.0796 2.27683,-0.36132 2.82493,-0.62602 0.54809,-0.2647 1.76529,-0.64391 2.70488,-0.84269 2.00351,-0.42385 2.35746,-0.66059 1.87371,-1.25321 -1.18297,-1.44922 -7.1631,-1.20283 -12.29573,0.5066 -3.69015,1.229 -6.46247,2.62108 -12.35596,6.20432 -8.13845,4.94818 -8.78403,5.36932 -12.10079,7.89392 -2.99,2.27589 -6.85794,5.11049 -7.05696,5.17167 -0.0447,0.0137 0.0621,-0.24722 0.23718,-0.57989 z m 44.40344,-13.29038 c 0,-0.15922 -0.26382,-0.28948 -0.58626,-0.28948 -0.32244,0 -0.50706,0.13026 -0.41028,0.28948 0.0968,0.15922 0.3606,0.28948 0.58625,0.28948 0.22566,0 0.41029,-0.13026 0.41029,-0.28948 z m -0.2107,-1.08285 c -0.92763,-0.46946 -1.43108,-0.37868 -1.08227,0.19514 0.10322,0.16981 0.59652,0.30041 1.09623,0.29023 l 0.90855,-0.0185 -0.92251,-0.46686 z m -22.97926,11.4873 c 0.87382,-0.9817 4.31171,-3.02834 8.42453,-5.01529 4.59326,-2.21905 6.32844,-2.7838 8.55316,-2.7838 1.4085,0 1.65667,0.0784 1.65667,0.52363 0,1.03168 -0.65556,1.44378 -2.56252,1.61088 -5.04135,0.44175 -7.08429,1.17944 -12.81261,4.62655 -1.48769,0.89524 -2.94897,1.62912 -3.24729,1.63084 -0.52951,0.003 -0.52979,-0.011 -0.0119,-0.59281 z m 48.38934,-1.72296 c 0.84366,-2.03793 1.04862,-4.45412 0.47115,-5.55396 -0.34065,-0.64882 -0.29992,-0.89134 0.37825,-2.252 0.50059,-1.00439 0.85604,-1.42724 1.04136,-1.23882 0.28778,0.2926 1.01727,3.14754 1.28587,5.03243 0.14049,0.98593 0.10725,1.04235 -0.53988,0.91657 -0.62507,-0.12148 -0.77884,0.0782 -1.64338,2.13373 -0.52459,1.24727 -1.07733,2.43374 -1.22832,2.63661 -0.58247,0.78259 -0.48005,0.0526 0.23495,-1.67456 z m -1.02982,-10.50162 c 0.23253,-0.23641 0.31676,-0.20402 0.31676,0.12182 0,0.24414 -0.0934,0.53887 -0.20761,0.65496 -0.11419,0.1161 -0.25673,0.0613 -0.31676,-0.12182 -0.06,-0.1831 0.0334,-0.47783 0.20761,-0.65496 z m -38.22463,-0.21677 c 0.16229,-0.165 0.79651,-0.36957 1.40939,-0.45461 1.04829,-0.14545 1.08157,-0.12767 0.56164,0.3 -0.62148,0.51119 -2.46389,0.65571 -1.97103,0.15461 z"
           id="path606" /><path
           style="fill:#5a62d1;stroke-width:0.287094"
           d="m 136.5604,188.26303 c 10.86301,-1.85079 21.87942,-7.09629 32.1739,-15.31971 6.27908,-5.01585 9.61026,-8.29569 12.2404,-12.05175 0.61319,-0.87569 1.77304,-2.32607 2.57744,-3.22307 1.46241,-1.63076 2.0583,-2.50094 5.55523,-8.1122 3.45086,-5.53736 5.88368,-11.96469 6.99526,-18.48101 0.8409,-4.92956 0.83927,-6.83344 -0.009,-11.06431 -0.97303,-4.85033 -3.35191,-9.73287 -6.28831,-12.90646 -1.22487,-1.32381 -2.70992,-2.58948 -3.60452,-3.07205 l -1.52143,-0.82069 1.37646,1.37241 c 0.91742,0.91472 1.28152,1.46892 1.0918,1.66181 -0.34078,0.34647 -0.73068,0.15492 -5.17314,-2.54149 -5.21214,-3.16358 -6.09801,-3.54422 -8.75529,-3.761891 -1.63806,-0.134184 -2.34897,-0.09569 -2.34897,0.127191 -1e-5,0.17579 0.19218,0.31962 0.42708,0.31962 0.44553,0 0.58452,0.44587 0.21197,0.67997 -0.39314,0.24703 -3.3361,-0.43177 -3.83122,-0.88369 -0.5744,-0.524276 -2.72579,-0.352383 -5.49194,0.4388 l -1.70835,0.48863 1.99307,0.18115 c 1.09619,0.0996 3.09065,0.19734 4.43212,0.21712 4.30478,0.0635 7.31481,0.97771 10.05758,3.05482 0.48699,0.3688 1.26981,0.79491 1.73961,0.94692 1.60426,0.51906 2.96163,3.63059 2.00715,4.60103 -0.48,0.48802 -0.53117,1.09777 -0.16779,1.99935 0.21683,0.53795 0.25575,0.52124 0.54944,-0.23596 0.17385,-0.44821 0.31609,-0.90415 0.31609,-1.0132 10e-6,-0.10904 0.47231,-0.58141 1.04957,-1.04971 0.71891,-0.58321 1.08763,-0.73532 1.1704,-0.48286 0.0665,0.20273 0.49856,0.60213 0.96021,0.88757 2.0973,1.29676 3.59524,5.34858 2.2483,6.08149 -0.78223,0.42563 -0.773,0.43132 -1.58457,-0.97667 -1.13275,-1.9652 -1.71401,-1.98569 -3.47357,-0.12247 -0.62908,0.66613 -1.23206,1.90505 -1.94882,4.00416 -2.74879,8.05009 -7.90136,15.76255 -15.60889,23.36366 -3.04515,3.0031 -3.32333,3.36927 -3.73862,4.92122 -0.24677,0.92219 -0.65117,2.09007 -0.89866,2.59528 -0.66731,1.36221 -9.22725,10.00075 -11.27931,11.38288 -4.75142,3.20024 -14.00492,6.93072 -18.57358,7.48781 -1.25279,0.15276 -3.43093,0.49779 -4.84032,0.76673 -3.02231,0.57673 -5.89638,0.39562 -5.18584,-0.32679 0.097,-0.0987 1.30358,-0.4145 2.68115,-0.70182 1.37758,-0.28731 3.46564,-0.96867 4.64013,-1.51411 1.17449,-0.54545 2.77606,-1.22572 3.55906,-1.51171 2.33854,-0.85418 8.13959,-3.72055 11.14257,-5.50568 8.35565,-4.96704 19.15037,-13.76827 20.73846,-16.90863 0.27578,-0.54534 1.10869,-1.84802 1.85091,-2.89484 5.14754,-7.26005 8.29061,-13.0108 9.82131,-17.96967 1.62989,-5.2802 1.23811,-11.1186 -0.9434,-14.05896 -1.09683,-1.47836 -3.42258,-3.10482 -5.16465,-3.61177 -1.32124,-0.38449 -6.35479,-0.70587 -7.01587,-0.44795 -0.90595,0.35346 0.94015,1.26411 3.31783,1.63662 5.70723,0.89417 8.3377,3.21967 9.07973,8.02704 0.47776,3.09525 -0.51679,8.8966 -1.82685,10.65621 -0.36696,0.49289 -0.40975,0.32733 -0.41931,-1.62223 -0.006,-1.19412 -0.15033,-2.6922 -0.32107,-3.32906 -0.60638,-2.26187 -2.59942,-3.61855 -5.31586,-3.61855 -1.27244,0 -1.81039,-0.13677 -2.27723,-0.57897 -0.33618,-0.31843 -0.97658,-0.57897 -1.42311,-0.57897 -1.33403,0 -5.52782,1.18475 -6.60659,1.86637 -2.45541,1.55145 -4.85173,1.9262 -5.69683,0.89091 -0.81781,-1.00188 3.17883,-3.04676 5.95477,-3.04676 2.40204,0 3.53723,-1.7033 1.44638,-2.1702 -1.32183,-0.29517 -0.87796,-0.84927 0.81239,-1.01412 1.22518,-0.11949 1.54579,-0.27102 1.83751,-0.86845 0.33716,-0.69053 0.47435,-0.72503 2.9922,-0.75246 2.77131,-0.0302 3.55213,-0.32475 2.91848,-1.10101 -1.18297,-1.44922 -7.1631,-1.20283 -12.29573,0.5066 -4.44864,1.48162 -6.81965,2.76236 -19.04699,10.28852 -1.17448,0.72292 -3.41669,2.3 -4.98268,3.50461 -4.55689,3.50534 -7.59189,5.55236 -7.23945,4.88282 0.54826,-1.04155 7.42854,-7.80708 10.37142,-10.19845 4.50534,-3.661 9.25048,-6.68249 15.10752,-9.61978 2.98479,-1.49686 5.61778,-2.72157 5.8511,-2.72157 0.23332,0 0.57357,-0.15186 0.75612,-0.33746 0.18256,-0.18561 1.32929,-0.76539 2.54829,-1.28841 1.37477,-0.58985 1.95987,-0.95636 1.54088,-0.96521 -0.57978,-0.0123 -0.62317,-0.0784 -0.30619,-0.4667 0.32493,-0.39806 0.26924,-0.42847 -0.4634,-0.25305 -3.72457,0.89179 -11.45568,4.61792 -16.7773,8.08607 -8.577,5.58971 -13.21793,9.64208 -20.0589,17.51503 -4.50868,5.18883 -7.40438,9.8969 -10.05966,16.35584 -5.3525,13.01991 -1.224,21.82293 10.24785,21.85101 1.12919,0.003 3.33682,-0.13696 4.90582,-0.3105 1.569,-0.17355 3.01545,-0.2578 3.21432,-0.18723 0.19887,0.0706 -0.91968,0.55359 -2.48566,1.07339 -2.58226,0.85713 -3.17849,0.94631 -6.40631,0.95827 -3.2598,0.0121 -8.66164,-0.71463 -10.32127,-1.38852 -0.35758,-0.1452 -0.49827,-0.0629 -0.49827,0.29149 0,0.80747 0.89295,2.47545 1.56485,2.92305 0.60756,0.40475 7.39846,2.83397 8.54288,3.05595 0.3132,0.0607 0.56945,0.29469 0.56945,0.51988 0,0.55493 -1.45655,0.9397 -2.84725,0.75214 l -1.1389,-0.15359 0.7648,0.64998 c 0.42064,0.35749 1.03062,1.28284 1.35552,2.05633 0.68207,1.62383 0.66764,1.62232 4.71307,0.4933 2.70679,-0.75542 7.3189,-1.09289 8.50138,-0.62204 0.73116,0.29113 0.79565,0.42238 0.63512,1.2924 -0.1992,1.0796 0.0874,1.46359 1.32873,1.78035 0.42977,0.10968 0.7814,0.30397 0.7814,0.43177 0,0.44703 -1.86414,1.82847 -3.40616,2.52416 -0.8555,0.38596 -1.72761,0.95166 -1.93804,1.2571 -0.49836,0.72341 -1.83439,0.71177 -3.44218,-0.03 -1.37186,-0.63291 -3.45946,-0.74338 -4.83497,-0.25586 -0.75325,0.26698 -1.10216,0.21417 -2.21992,-0.33597 -0.7294,-0.359 -2.17215,-0.74353 -3.20609,-0.85451 -1.03395,-0.11098 -2.4385,-0.49081 -3.12123,-0.84407 -1.10935,-0.574 -1.2245,-0.72779 -1.08311,-1.44656 0.19162,-0.97414 -0.0341,-1.31853 -2.57738,-3.93189 -2.13638,-2.19527 -2.40934,-2.82462 -2.50942,-5.78579 -0.0323,-0.9553 -0.27896,-2.49308 -0.54816,-3.41729 -0.39919,-1.37049 -0.46786,-2.51828 -0.37238,-6.2239 0.10366,-4.02251 0.21581,-4.87548 0.97805,-7.43836 1.27015,-4.27063 1.31147,-4.49481 0.50683,-2.7501 -2.31474,5.01912 -3.439,14.42698 -2.26592,18.9612 1.24418,4.80905 3.48149,9.367 5.49179,11.18812 0.46113,0.41774 1.01607,1.00233 1.23319,1.29909 1.4508,1.98296 7.79006,5.43159 11.92611,6.48793 3.09204,0.7897 10.64511,1.02309 14.09387,0.43551 z m -17.63908,-3.74965 c -0.96408,-0.44524 -1.05419,-0.5599 -0.62975,-0.80139 0.62201,-0.35392 2.04213,-0.0519 2.64679,0.56283 0.42223,0.4293 0.41629,0.4837 -0.0741,0.67858 -0.29324,0.11652 -0.59722,0.18209 -0.67552,0.1457 -0.0783,-0.0364 -0.64863,-0.29996 -1.26741,-0.58572 z m 28.03154,-0.89732 c 0,-0.23882 -0.13704,-0.43423 -0.30453,-0.43423 -0.77875,0 0.0211,-1.39848 1.48435,-2.59536 3.0942,-2.53091 14.91446,-9.16699 16.81552,-9.4405 0.58965,-0.0848 1.14659,0.0304 1.49737,0.3098 0.53763,0.42822 0.47368,0.5321 -1.70835,2.7755 -3.10796,3.19536 -4.19789,3.95811 -9.66774,6.76561 -4.06219,2.08499 -5.48992,2.6304 -7.90308,3.01901 -0.11745,0.0189 -0.21354,-0.16101 -0.21354,-0.39983 z m 21.35435,-12.88204 c 1.04295,-0.8926 2.5342,-1.28839 1.69818,-0.4507 -0.49587,0.49684 -2.00716,1.31808 -2.40999,1.30959 -0.1566,-0.003 0.16371,-0.3898 0.71181,-0.85889 z m -18.50655,-2.45993 c -0.29042,-0.35578 -0.21533,-0.61824 0.41864,-1.46332 1.4576,-1.94295 9.58582,-8.3671 12.6231,-9.97668 2.29031,-1.21374 2.79744,-0.20406 1.13952,2.26875 -2.44614,3.64842 -7.99469,7.87948 -12.03634,9.17832 -1.54655,0.49701 -1.73395,0.4964 -2.14492,-0.007 z m -27.69003,-4.83323 c -0.43065,-0.16701 -0.783,-0.41649 -0.783,-0.55439 0,-0.1379 -0.48047,-0.57232 -1.06771,-0.96538 -0.58725,-0.39305 -1.63651,-1.22408 -2.33169,-1.84672 -1.08875,-0.97515 -1.28609,-1.32803 -1.42362,-2.54568 -0.11197,-0.9914 -0.28722,-1.4136 -0.58675,-1.4136 -0.32461,0 -0.40876,0.29519 -0.35074,1.2303 0.0557,0.89696 -0.0314,1.23031 -0.32113,1.23031 -0.78038,0 -2.44482,-0.8775 -2.74457,-1.44694 -0.16776,-0.3187 -0.48251,-0.57945 -0.69946,-0.57945 -0.38842,0 -0.52142,-0.42555 -0.87024,-2.7844 -0.24743,-1.67321 0.32938,-5.55791 1.15731,-7.79428 1.3292,-3.59038 3.53497,-7.47511 3.98475,-7.01781 0.10718,0.10897 0.0692,2.1794 -0.0844,4.60096 -0.15361,2.42156 -0.21759,4.64271 -0.14218,4.93589 0.17739,0.68971 0.67049,0.67508 1.57298,-0.0467 0.40226,-0.32171 0.92626,-0.5012 1.1773,-0.40325 0.81395,0.31756 0.4835,1.32303 -0.82889,2.52202 -1.22787,1.12178 -1.28126,1.23786 -1.28126,2.78572 0,1.32326 0.10722,1.68323 0.59328,1.99185 0.3263,0.20719 0.52658,0.55341 0.44507,0.76939 -0.0815,0.21598 0.0336,0.46362 0.25577,0.5503 0.2222,0.0867 0.97913,1.0699 1.68209,2.18491 1.59484,2.52971 2.69564,3.16768 5.9517,3.44929 2.1526,0.18617 6.26837,-0.16082 7.81065,-0.6585 1.03827,-0.33505 0.71043,0.12052 -0.43807,0.60873 -3.70966,1.57694 -8.35517,2.09792 -10.67717,1.19742 z m 4.60272,-2.14453 c -0.95829,-1.17397 1.99119,-9.98296 4.65765,-13.91067 0.84795,-1.24903 2.04213,-2.99404 2.65375,-3.8778 1.62873,-2.35345 9.18809,-9.5182 12.64338,-11.98337 6.64253,-4.7391 10.71916,-6.70136 16.94112,-8.15448 4.55358,-1.06348 6.17542,-1.09089 6.69013,-0.11306 0.35666,0.67757 -0.0931,3.19283 -1.05632,5.90783 -0.81556,2.29871 -1.08665,2.77852 -2.96001,5.23901 -0.72734,0.9553 -2.06376,2.90931 -2.96983,4.34226 -2.3022,3.64091 -4.32239,5.6677 -10.38115,10.41507 -9.07545,7.11112 -14.42512,10.14957 -20.92726,11.88607 -3.06543,0.81867 -4.76138,0.89852 -5.29146,0.24914 z m 52.85376,-2.50352 c 0.27918,-0.93726 1.10788,-2.28062 3.4816,-5.64383 2.2873,-3.24077 3.7964,-4.9947 4.29749,-4.9947 1.64103,0 -2.89411,7.64512 -6.03841,10.17927 -1.57889,1.2725 -2.01738,1.3882 -1.74068,0.45926 z m -55.8381,-4.70411 c 0.1124,-0.60919 0.0734,-1.0132 -0.0978,-1.0132 -0.36158,0 -0.71687,-1.86558 -0.47656,-2.5023 0.14957,-0.39627 0.34364,-0.29472 1.10954,0.58055 0.72751,0.83142 1.00295,0.9849 1.27363,0.70969 0.18996,-0.19313 0.34538,-0.52508 0.34538,-0.73766 0,-0.21258 0.21193,-0.71538 0.47096,-1.11731 0.35549,-0.55162 0.52895,-0.63784 0.70745,-0.35168 0.40283,0.6458 0.27157,1.65357 -0.3808,2.92365 l -0.62602,1.21877 -0.15828,-0.85969 -0.15828,-0.85969 -0.63933,0.82636 c -0.35163,0.4545 -0.63933,0.97814 -0.63933,1.16365 0,0.32078 -0.55165,1.03205 -0.80044,1.03205 -0.0644,0 -0.033,-0.45594 0.0699,-1.01319 z m 5.57165,-4.92319 c 0.4679,-1.25123 1.1742,-2.51851 1.32066,-2.3696 0.14944,0.15194 -1.24033,3.09527 -1.46151,3.09527 -0.0718,0 -0.008,-0.32655 0.14085,-0.72567 z m -4.95927,-3.97844 c 0.84755,-2.44791 4.9105,-8.38398 4.94686,-7.22748 0.0134,0.42511 -1.16817,2.86595 -2.16261,4.46757 -0.72009,1.15977 -0.84767,1.95989 -0.38717,2.42809 0.19124,0.19443 0.15446,0.47317 -0.11117,0.84252 -0.33697,0.46853 -0.50599,0.50145 -1.11835,0.21777 -0.57824,-0.26786 -0.78908,-0.25123 -1.06259,0.0838 -0.5402,0.66179 -0.56063,0.50374 -0.10497,-0.8123 z m 64.18127,0.78782 c 0,-0.34452 1.81839,-3.81906 2.43801,-4.65849 0.59975,-0.81251 1.83373,-1.50178 1.83229,-1.02346 -5.7e-4,0.21056 -2.04995,3.42288 -3.12224,4.89413 -0.61277,0.84076 -1.14806,1.20808 -1.14806,0.78782 z M 131.293,141.48177 c 0,-1.65175 4.08201,-5.79362 4.89513,-4.96691 0.40377,0.41051 -1.38514,3.46995 -2.31472,3.95869 -0.42415,0.223 -0.93769,0.60945 -1.14121,0.85877 -0.41618,0.50984 -1.4392,0.61608 -1.4392,0.14945 z m 60.16049,-3.98942 c 0.0896,-0.76915 0.0478,-1.90899 -0.0928,-2.53299 -0.15838,-0.70262 -0.14498,-1.84906 0.0352,-3.0114 0.31593,-2.0381 1.27893,-4.56426 1.61117,-4.22647 0.28335,0.28808 0.11228,5.42285 -0.25149,7.54867 -0.31393,1.83456 -0.93964,3.62063 -1.2684,3.62063 -0.1081,0 -0.12324,-0.6293 -0.0337,-1.39844 z m 3.17117,-8.47153 c 0.10381,-0.93281 0.39357,-2.38293 0.64393,-3.2225 0.45469,-1.52477 0.45548,-1.5255 0.70885,-0.65802 0.32066,1.09789 0.0215,4.3153 -0.52478,5.64494 -0.37579,0.91459 -0.44552,0.96056 -0.71651,0.4724 -0.18118,-0.32636 -0.22538,-1.21328 -0.11149,-2.23682 z m -53.5382,1.93529 c -0.4347,-1.15174 2.43795,-4.32005 5.15887,-5.68984 2.63349,-1.32577 4.90879,-1.18222 4.14871,0.26174 -0.60715,1.15343 -5.57717,4.67324 -7.6745,5.43513 -1.33019,0.48322 -1.44823,0.48271 -1.63308,-0.007 z m -7.23094,-4.17154 c 0,-1.38211 4.64285,-5.26282 6.29639,-5.26282 0.99817,0 1.01303,0.15834 0.1378,1.46789 -1.13301,1.69525 -4.76169,4.26855 -6.07828,4.31046 -0.19575,0.006 -0.35591,-0.22575 -0.35591,-0.51553 z m 9.26866,-1.80598 c 0.87382,-0.9817 4.31171,-3.02834 8.42453,-5.01529 4.59326,-2.21905 6.32844,-2.7838 8.55316,-2.7838 1.4085,0 1.65667,0.0784 1.65667,0.52363 0,1.03168 -0.65556,1.44378 -2.56252,1.61088 -5.04135,0.44175 -7.08429,1.17944 -12.81261,4.62655 -1.48769,0.89524 -2.94897,1.62912 -3.24729,1.63084 -0.52951,0.003 -0.52979,-0.011 -0.0119,-0.59281 z m 48.38934,-1.72296 c 0.84366,-2.03793 1.04862,-4.45412 0.47115,-5.55396 -0.34065,-0.64882 -0.29992,-0.89134 0.37825,-2.252 0.42392,-0.85055 0.86704,-1.4133 1.00203,-1.27257 0.56736,0.59144 1.42165,3.42168 1.42165,4.70987 0,1.30613 -0.0429,1.38822 -0.66296,1.26771 -0.59126,-0.11491 -0.76613,0.11643 -1.61675,2.1389 -0.52459,1.24727 -1.07733,2.43374 -1.22832,2.63661 -0.58247,0.78259 -0.48005,0.0526 0.23495,-1.67456 z m -1.02982,-10.50162 c 0.23253,-0.23641 0.31676,-0.20402 0.31676,0.12182 0,0.24414 -0.0934,0.53887 -0.20761,0.65496 -0.11419,0.1161 -0.25673,0.0613 -0.31676,-0.12182 -0.06,-0.1831 0.0334,-0.47783 0.20761,-0.65496 z m -37.97871,-0.36145 c 0.46979,-0.21872 1.17449,-0.39939 1.56598,-0.40151 0.68689,-0.004 0.69246,0.011 0.15913,0.42117 -0.30398,0.23376 -1.00867,0.41444 -1.56599,0.40151 l -1.0133,-0.0235 0.85418,-0.39766 z m -45.03753,34.73507 c 0.26296,-0.56066 0.46906,-1.1778 0.458,-1.37142 -0.011,-0.19362 -0.26999,0.22059 -0.5754,0.92047 -0.66479,1.52345 -0.56515,1.90619 0.1174,0.45095 z m 58.84668,-32.55349 c 0,-0.15922 -0.26382,-0.28948 -0.58626,-0.28948 -0.32244,0 -0.50706,0.13026 -0.41028,0.28948 0.0968,0.15922 0.3606,0.28948 0.58625,0.28948 0.22566,0 0.41029,-0.13026 0.41029,-0.28948 z"
           id="path608" /><path
           style="fill:#2c66cf;stroke-width:0.287094"
           d="m 135.13678,188.11604 c 1.14277,-0.31301 1.03707,-0.33461 -2.42016,-0.49457 -6.31655,-0.29224 -7.34233,-0.22972 -6.7152,0.40922 0.29479,0.30034 8.08472,0.37313 9.13536,0.0854 z m -13.73797,-1.36263 c -0.19574,-0.0803 -0.51606,-0.0803 -0.71181,0 -0.19575,0.0803 -0.0356,0.14601 0.35591,0.14601 0.39149,0 0.55165,-0.0657 0.3559,-0.14601 z m 18.1512,-0.40121 c 2.90937,-0.5096 4.40791,-0.92999 5.74553,-1.61181 1.48568,-0.75728 1.90222,-1.22576 1.38105,-1.55324 -0.64596,-0.4059 -0.15745,-1.27724 1.45786,-2.60032 2.76091,-2.26141 14.41386,-8.89987 16.56446,-9.43645 0.48748,-0.12163 1.07912,-0.0516 1.5002,0.17749 0.62792,0.34167 0.82091,0.28828 1.99217,-0.5511 1.04256,-0.74715 1.47636,-0.89518 2.21208,-0.75485 0.8201,0.15643 1.17567,-0.0408 3.42209,-1.89804 1.3788,-1.13993 2.88255,-2.4845 3.34167,-2.98793 1.0291,-1.1284 2.3698,-3.34488 2.1552,-3.56306 -0.0871,-0.0885 -0.7753,0.41501 -1.52939,1.119 -1.74399,1.62813 -3.1463,2.61577 -3.52957,2.48587 -0.46929,-0.15904 1.33902,-3.41111 2.70526,-4.86516 1.2575,-1.33831 3.0123,-3.81973 3.0123,-4.25962 0,-0.13599 0.86485,-1.37805 1.92189,-2.76012 3.61016,-4.72023 6.05263,-7.88804 6.88239,-8.92626 0.48318,-0.60455 1.15552,-2.11471 1.61101,-3.61855 0.63994,-2.11276 0.77482,-3.07819 0.74356,-5.3219 -0.0392,-2.81531 0.45588,-5.7308 1.2325,-7.25772 0.57509,-1.13069 0.8311,-1.08098 1.17712,0.22857 l 0.28684,1.08556 0.37476,-0.86845 c 0.6072,-1.40705 0.72275,-5.88447 0.1856,-7.19154 -0.24873,-0.60523 -0.57216,-1.02506 -0.71873,-0.93295 -0.14659,0.0921 -0.61135,1.08497 -1.03282,2.20637 -0.79385,2.11222 -1.98931,3.86913 -2.43998,3.58594 -0.49221,-0.30928 -0.24507,-1.43613 0.58962,-2.68839 0.80106,-1.2018 0.83047,-1.35702 0.66661,-3.51752 -0.16018,-2.11183 -0.11302,-2.38716 0.71826,-4.19326 l 0.8897,-1.93303 -0.5894,-1.78655 c -0.32417,-0.98261 -0.75513,-1.98196 -0.9577,-2.22078 -0.20256,-0.23883 -0.56709,-0.82503 -0.81006,-1.30268 -0.60911,-1.19743 -2.86278,-3.51122 -3.97474,-4.08077 l -0.91957,-0.471 1.18156,1.26269 c 0.64987,0.69448 1.45304,1.91403 1.78484,2.71011 0.3318,0.79608 0.92119,2.05283 1.30977,2.79276 0.8642,1.64562 0.88617,2.27763 0.10288,2.95951 -0.54448,0.47398 -0.58516,0.71601 -0.4152,2.46976 0.10364,1.06936 0.10532,2.16452 0.004,2.43369 -0.27023,0.716 -0.94178,0.59739 -1.31346,-0.23198 -0.17995,-0.40156 -0.75392,-0.87972 -1.29459,-1.07849 -0.60492,-0.2224 -1.33968,-0.87844 -1.94793,-1.73922 -0.53715,-0.76017 -1.15988,-1.38212 -1.38385,-1.38212 -0.92131,0 -2.45497,2.17202 -3.57708,5.06597 -2.54877,6.57332 -6.76465,13.7351 -11.63857,19.77112 -1.19536,1.48037 -2.98161,3.69492 -3.96945,4.92123 -0.98785,1.22631 -2.47991,3.21556 -3.31569,4.42057 -1.7611,2.53911 -11.26027,11.98371 -13.75544,13.67642 -2.54023,1.72328 -7.57708,4.11557 -11.32248,5.3777 -1.87431,0.6316 -6.02716,1.68769 -9.22856,2.34688 -3.20141,0.65918 -6.05221,1.32446 -6.33512,1.4784 -0.28292,0.15395 -0.51439,0.54024 -0.51439,0.85844 0,0.35434 -0.3862,0.81022 -0.99654,1.17635 -0.88799,0.53268 -0.99654,0.73054 -0.99654,1.81655 0,0.67032 0.18015,1.46924 0.40033,1.77538 0.36479,0.50723 0.51007,0.52421 1.63716,0.19141 4.56359,-1.34754 9.23769,-1.86568 10.92976,-1.2116 0.67551,0.26112 0.74105,0.4032 0.58248,1.26259 -0.1992,1.0796 0.0874,1.46359 1.32873,1.78035 0.42977,0.10968 0.7814,0.30397 0.7814,0.43177 0,0.44703 -1.86414,1.82847 -3.40616,2.52416 -0.8555,0.38596 -1.72761,0.95166 -1.93804,1.2571 -0.43259,0.62794 -1.5987,0.72473 -2.8231,0.23431 -1.28775,-0.51579 -4.62993,-0.81223 -5.53615,-0.49104 -0.65297,0.23143 -1.07084,0.16008 -2.13781,-0.36507 -0.75141,-0.36983 -2.17028,-0.7314 -3.27374,-0.83423 -1.07115,-0.0998 -2.10289,-0.33944 -2.29275,-0.53248 -0.18988,-0.19304 -0.47538,-0.35098 -0.63446,-0.35098 -0.15908,0 0.4067,0.71647 1.2573,1.59216 1.36782,1.40818 1.67926,1.59198 2.69516,1.59055 0.63174,-8.7e-4 1.63555,-0.13909 2.23069,-0.30712 1.22407,-0.3456 2.88754,0.0492 3.15123,0.74782 0.18179,0.48163 1.58838,1.12276 3.09084,1.40882 0.75149,0.14307 1.25568,0.0716 1.73154,-0.24539 0.36924,-0.24597 1.38723,-0.4792 2.26219,-0.51828 1.33278,-0.0595 1.70593,0.0388 2.30027,0.60639 0.64547,0.61636 1.01335,0.68681 4.08046,0.78151 1.85407,0.0572 4.07572,-0.0194 4.93701,-0.17022 z m 9.39655,-17.34856 c -1.00555,-0.64629 1.05844,-2.97755 6.55317,-7.40174 5.73495,-4.6176 10.24496,-7.02629 10.24496,-5.47158 0,2.53815 -6.16793,8.88504 -11.10094,11.42302 -1.62633,0.83673 -3.96453,1.68605 -4.70128,1.70768 -0.3132,0.009 -0.76136,-0.10663 -0.99591,-0.25738 z m 6.47708,12.24398 c 1.60526,-0.89959 2.87173,-1.68334 2.81436,-1.74166 -0.0574,-0.0583 -1.56294,0.67759 -3.34574,1.63536 -1.78279,0.95777 -3.04926,1.74152 -2.81436,1.74167 0.2349,1.5e-4 1.74048,-0.73577 3.34574,-1.63537 z m -45.12071,-1.62246 c 0.26944,-0.33762 0.48793,-0.68507 0.48553,-0.77209 -0.0121,-0.43803 -0.62055,-1.03882 -1.46206,-1.44358 -0.51634,-0.24836 -1.51874,-1.19415 -2.22754,-2.10175 -2.22271,-2.84615 -1.58573,-0.32651 0.75485,2.98587 1.3114,1.85589 1.8131,2.12864 2.44922,1.33155 z m 5.77153,-10.02058 c 0.14877,-0.14355 1.2955,-0.47649 2.54829,-0.73987 1.25279,-0.26338 2.59811,-0.55935 2.98961,-0.65771 0.39149,-0.0984 -1.40227,-0.3354 -3.98615,-0.52676 -2.58387,-0.19135 -5.39387,-0.55954 -6.24444,-0.8182 -1.83679,-0.55856 -1.72785,-0.5489 -1.72785,-0.15311 0,0.69261 1.28795,2.09527 2.39199,2.60505 1.22607,0.56612 3.56793,0.73505 4.02855,0.2906 z m -11.85032,-2.25491 c -0.011,-0.28802 -0.13013,-0.78421 -0.26471,-1.10265 -0.20627,-0.48803 -0.24785,-0.43388 -0.26471,0.34477 -0.011,0.50806 0.10811,1.00425 0.26471,1.10265 0.1566,0.0984 0.27572,-0.0567 0.26471,-0.34477 z m 22.94035,-1.99357 c 1.87918,-0.20501 3.86514,-0.49784 4.41323,-0.65072 2.47346,-0.68995 8.73235,-3.78454 12.18498,-6.02463 1.41685,-0.91927 3.74335,-2.66864 9.55058,-7.18142 2.08395,-1.61942 6.22374,-5.92349 6.08994,-6.33159 -0.20299,-0.61916 -0.91996,-0.3694 -0.89605,0.31215 0.0241,0.68582 -1.76506,2.56616 -5.22688,5.49341 -2.73526,2.31288 -3.31524,2.39366 -0.91766,0.12781 1.17448,-1.10996 2.0478,-2.10991 1.9407,-2.2221 -0.20338,-0.21307 -0.59741,0.0519 -5.40812,3.63593 -3.51342,2.61756 -5.9806,4.10747 -10.44594,6.3082 -1.8352,0.90448 -3.65159,1.9506 -4.03642,2.32472 -1.30229,1.26605 -5.02061,2.4398 -8.83552,2.78908 -2.08125,0.19055 -2.2255,0.16184 -4.1285,-0.82155 -1.08455,-0.56045 -2.41321,-1.35522 -2.95258,-1.76615 -0.53937,-0.41094 -1.25833,-0.74715 -1.59768,-0.74715 -0.50854,0 -0.59251,0.13034 -0.47763,0.74136 0.0767,0.40774 0.46924,0.96138 0.87239,1.2303 0.83787,0.55891 2.95779,1.18103 4.08868,1.19988 0.4214,0.007 0.83693,0.12915 0.92339,0.27138 0.52862,0.86963 -4.67846,0.41739 -7.03474,-0.61097 -1.91916,-0.83759 -2.54896,-1.7564 -3.7614,-5.4874 -1.03798,-3.19417 -1.06204,-3.36507 -0.93,-6.60804 0.0891,-2.18945 0.29884,-3.72191 0.6126,-4.47666 0.26238,-0.63118 0.49218,-1.60819 0.51066,-2.17113 0.11635,-3.54402 5.04724,-11.70302 11.42394,-18.90285 1.09465,-1.23595 1.90597,-2.33288 1.80295,-2.43763 -0.25384,-0.25808 -1.18632,0.64777 -4.49084,4.36256 -5.29241,5.94949 -8.72952,12.0112 -10.81168,19.06754 -2.54012,8.60832 -1.39556,14.23597 3.50377,17.22755 2.88322,1.76053 6.80255,2.13703 14.03383,1.34812 z m 21.63813,-11.41059 c 0.0963,-0.15836 0.45617,-0.42625 0.7998,-0.59531 0.59191,-0.29122 0.58942,-0.27608 -0.0474,0.28793 -0.72542,0.64247 -1.0323,0.76784 -0.7524,0.30738 z m -23.5506,7.01843 c -0.18385,-0.43784 -0.45561,-0.96206 -0.60392,-1.16493 -0.1483,-0.20287 -0.17771,-0.46232 -0.0653,-0.57656 0.11236,-0.11423 0.32917,0.0192 0.48181,0.29648 0.15263,0.27731 0.4547,0.50419 0.67127,0.50419 0.41029,0 0.55124,-0.333 0.85769,-2.02639 0.29853,-1.64959 2.72802,-8.99995 3.49241,-10.56616 0.38852,-0.79608 1.39562,-2.18679 2.238,-3.09046 0.84237,-0.90368 1.53159,-1.84812 1.53159,-2.09876 0,-0.61766 -0.16833,-0.58228 -1.61941,0.34036 -0.96006,0.61044 -1.46376,1.23486 -2.16004,2.67773 -0.49941,1.0349 -1.01121,1.92667 -1.13733,1.9817 -0.12612,0.055 -0.6144,0.42952 -1.08508,0.83219 -0.77793,0.66553 -0.83929,0.84386 -0.67459,1.96057 0.12726,0.86282 0.0452,1.49589 -0.27585,2.12703 -0.77698,1.52764 -1.86812,3.0429 -2.91934,4.05411 -0.97765,0.94042 -1.00118,1.01359 -0.81447,2.53298 0.22854,1.85973 -0.15866,2.06684 -0.80302,0.42951 -0.37757,-0.95942 -0.39745,-1.48578 -0.12844,-3.40143 0.17503,-1.2465 0.3477,-3.56905 0.3837,-5.16121 0.0676,-2.98983 0.38475,-4.26353 1.59302,-6.39772 0.9352,-1.65186 4.29771,-6.1465 4.72935,-6.32169 0.69268,-0.28114 0.35126,1.07732 -0.80683,3.21034 -0.98712,1.81812 -1.13533,2.30648 -0.9813,3.23344 0.19597,1.17927 -0.29103,1.915 -1.40501,2.1226 -1.52228,0.28371 -2.53012,4.03487 -1.13849,4.23744 0.87479,0.12734 1.75385,-1.03463 2.56206,-3.38657 0.48178,-1.40201 1.00821,-2.35276 1.56777,-2.83147 0.46334,-0.39639 0.84243,-0.88165 0.84243,-1.07836 0,-0.65623 3.36515,-5.5614 4.32296,-6.3013 2.25715,-1.74364 5.35768,-2.88461 5.35768,-1.97158 0,0.1606 -0.70469,1.07134 -1.56599,2.02387 -1.40167,1.55015 -1.8677,2.31587 -1.40948,2.31587 1.0946,0 5.1248,-4.03804 5.66011,-5.67112 0.31493,-0.96078 0.65201,-1.28482 2.23118,-2.14495 1.02311,-0.55725 2.09733,-1.22575 2.38715,-1.48555 0.28983,-0.2598 0.84727,-0.56794 1.23877,-0.68477 1.60176,-0.47799 5.18288,-2.5784 5.40393,-3.16952 0.30033,-0.80313 0.8156,-1.22327 1.81211,-1.47756 0.47484,-0.12117 1.15706,-0.69625 1.65881,-1.39832 0.70952,-0.99276 0.82397,-1.37434 0.6833,-2.27807 -0.16163,-1.03846 -0.13412,-1.08556 0.63415,-1.08556 0.44172,0 1.05183,-0.20365 1.35581,-0.45255 0.5163,-0.42275 0.46834,-0.44198 -0.72857,-0.29214 -4.52185,0.56609 -6.22454,1.20995 -12.24316,4.62964 -1.48769,0.84529 -3.1161,1.61533 -3.61869,1.71122 -0.89698,0.17112 -7.06083,4.95837 -9.69219,7.52759 -0.66555,0.64982 -1.21008,1.10584 -1.21008,1.01338 0,-0.0925 0.64217,-0.9989 1.42704,-2.01429 2.27946,-2.94895 5.39252,-5.50052 9.30168,-7.62399 1.92392,-1.04508 4.09487,-2.28498 4.82434,-2.75533 0.72947,-0.47034 2.23708,-1.24298 3.35025,-1.71696 1.11317,-0.47398 3.02383,-1.39033 4.24589,-2.03634 1.96762,-1.04012 2.44598,-1.17456 4.17935,-1.17456 1.9481,0 3.10218,0.51262 2.68801,1.19396 -0.28528,0.4693 0.47372,1.12191 1.30481,1.12191 0.55757,0 0.83128,-0.17563 0.94149,-0.60414 0.21052,-0.81846 1.11966,-0.61126 1.33208,0.30358 0.19002,0.81841 2.96218,2.90471 3.86059,2.90544 0.32103,2.6e-4 0.73744,0.1568 0.92536,0.34786 0.25721,0.26152 0.42249,0.26521 0.66865,0.0149 0.49051,-0.49872 -0.17484,-3.48824 -0.96898,-4.35371 -1.08328,-1.1806 -2.60082,-1.79829 -4.41802,-1.79829 -1.27244,0 -1.81039,-0.13677 -2.27723,-0.57897 -0.79333,-0.75145 -2.36698,-0.75145 -3.96185,0 -4.71166,2.21999 -7.10649,2.99475 -8.45931,2.73671 -2.45765,-0.46876 -1.63533,-1.85816 1.82075,-3.07636 1.17449,-0.41398 2.69549,-0.8223 3.37999,-0.90739 1.40672,-0.17484 1.89949,-0.53158 1.64944,-1.19411 -0.21386,-0.56661 -1.29808,-0.58753 -2.06708,-0.0399 -0.36051,0.25673 -1.38419,0.42958 -2.69706,0.45541 -3.02856,0.0596 -2.95642,0.0714 -2.55604,-0.41911 0.4445,-0.54453 2.85969,-1.35508 4.05764,-1.36176 1.46357,-0.008 4.00233,-0.81116 4.72691,-1.49513 0.52823,-0.49862 1.12886,-0.64972 3.06569,-0.77119 1.32482,-0.0831 2.41897,-0.28134 2.43145,-0.44056 0.0513,-0.65526 -2.14553,-1.06962 -4.74172,-0.89435 -5.36765,0.36238 -10.69922,2.45569 -18.6585,7.32577 -1.78972,1.09509 -4.15092,2.49377 -5.24711,3.10817 -4.05791,2.27442 -11.07795,8.15108 -14.33957,12.00404 -1.83453,2.16713 -3.7859,5.35354 -4.2688,6.97054 -0.82195,2.7523 -1.65645,10.28821 -1.21477,10.96983 0.21715,0.33512 0.42933,0.29824 1.24949,-0.21711 1.13393,-0.71252 3.34087,-0.8663 3.34087,-0.23279 0,0.21339 -0.3854,1.17214 -0.85645,2.13054 -0.72756,1.48033 -0.9537,1.72365 -1.50275,1.61694 -0.40845,-0.0794 -0.84058,0.0926 -1.17418,0.46743 -0.45306,0.50899 -0.47919,0.71252 -0.18439,1.43613 0.25385,0.62308 0.48656,0.80506 0.89173,0.69734 0.46093,-0.12255 0.54834,0.009 0.54886,0.82882 5.7e-4,1.03796 1.3775,4.00003 2.38328,5.12724 0.90915,1.0189 1.99806,1.49228 3.43272,1.49228 h 1.28929 z m 15.83444,-30.00783 c -0.4347,-1.15174 2.43795,-4.32005 5.15887,-5.68984 2.63349,-1.32577 4.90879,-1.18222 4.14871,0.26174 -0.60715,1.15343 -5.57717,4.67324 -7.6745,5.43513 -1.33019,0.48322 -1.44823,0.48271 -1.63308,-0.007 z m -7.80039,-3.99551 c 0,-0.94945 3.63112,-4.43717 5.54905,-5.32991 3.5906,-1.67131 3.49243,0.39011 -0.16714,3.50961 -2.71435,2.31378 -5.38191,3.21601 -5.38191,1.8203 z m 57.03752,19.62938 c 2.48355,-2.31286 6.2861,-14.08863 6.14298,-19.02361 -0.0264,-0.91176 -0.044,-0.92918 -0.25634,-0.25494 -0.12538,0.39804 -0.24074,1.08613 -0.25634,1.52909 -0.0435,1.23514 -0.85496,3.03748 -1.14942,2.55307 -0.18993,-0.31244 -0.2755,-0.28108 -0.40801,0.14948 -0.22814,0.74136 -1.23912,6.0193 -1.47068,7.67784 -0.17597,1.26042 -0.74756,2.30855 -3.35453,6.1513 -0.73709,1.08649 -1.00814,2.2031 -0.53478,2.2031 0.126,0 0.7052,-0.4434 1.28712,-0.98533 z m -28.32106,-4.82178 c 0.68229,-0.80552 1.18417,-1.52187 1.11528,-1.59191 -0.10505,-0.10681 -0.8326,0.74713 -2.29602,2.69491 -0.69205,0.92109 0.0664,0.21254 1.18074,-1.103 z m 3.03644,-3.96216 c 5.15252,-6.35106 9.24746,-15.17173 9.24746,-19.91943 0,-1.02623 -0.12562,-1.86505 -0.2793,-1.86505 -0.31898,0 -0.47422,0.64458 -0.69097,2.86895 -0.21248,2.1804 -1.18919,5.00559 -2.15985,6.24742 -0.4495,0.57507 -0.90677,1.4622 -1.01616,1.9714 -0.34226,1.59319 -1.69706,4.29397 -3.58654,7.14972 -2.05224,3.10175 -3.4683,5.50019 -3.24735,5.50019 0.0815,0 0.86118,-0.87894 1.73271,-1.9532 z m 31.3695,-14.77406 c -0.094,-1.23919 -0.30848,-2.57443 -0.47664,-2.96721 -0.26672,-0.62297 -0.28704,-0.56631 -0.15918,0.44379 0.0806,0.63687 0.148,1.97211 0.14972,2.96721 0.002,1.16704 0.11918,1.80928 0.33006,1.80928 0.23272,0 0.27768,-0.64925 0.15604,-2.25307 z m -34.03234,-0.036 c 2.14444,-0.19376 2.55137,-0.41037 1.67091,-0.88945 -0.42038,-0.22875 -0.55447,-0.50051 -0.4353,-0.88227 0.23466,-0.75169 -1.09451,-1.11839 -1.79349,-0.49478 -0.26774,0.23886 -0.76853,0.52149 -1.11286,0.62808 -0.34434,0.10659 -0.70496,0.4465 -0.80138,0.75536 -0.18005,0.57678 0.0268,1.18114 0.37653,1.10017 0.10821,-0.025 1.05122,-0.12275 2.09559,-0.21711 z m -30.01541,-6.12389 c 0.82214,-0.64152 1.4948,-1.23369 1.4948,-1.31594 0,-0.19609 -2.49813,1.62987 -2.89497,2.11601 -0.50361,0.61697 -0.17581,0.42965 1.40017,-0.80007 z m 39.57763,-8.73899 c -0.31546,-0.96959 -5.47106,-3.42127 -6.2135,-2.95475 -0.56699,0.35628 -0.2042,0.63293 1.26987,0.96833 0.85049,0.19351 2.15126,0.79484 2.91752,1.34874 1.41564,1.02331 2.23553,1.28136 2.02611,0.63768 z m 6.83249,-4.27891 c 0.35235,-0.14399 0.64063,-0.38964 0.64063,-0.54588 0,-0.41677 -1.70089,-1.63001 -2.81855,-2.01047 -1.1735,-0.39947 -3.44539,-0.43555 -3.44539,-0.0547 0,0.40212 1.6744,1.63373 3.14007,2.30968 1.42023,0.655 1.57268,0.6735 2.48324,0.30138 z m -11.88726,-3.1753 c 0,-0.15921 -0.48047,-0.2765 -1.06771,-0.26063 -0.9529,0.0258 -0.99117,0.0538 -0.35591,0.26063 1.01776,0.33139 1.42362,0.33139 1.42362,0 z"
           id="path610" /><path
           style="fill:#1d53a8;stroke-width:0.287094"
           d="m 128.44575,187.81358 c -0.56116,-0.36872 -1.70835,-0.36872 -1.70835,0 0,0.15921 0.48048,0.28749 1.06772,0.28505 0.79421,-0.003 0.95831,-0.0763 0.64063,-0.28505 z m 11.47785,-2.05353 c 2.53814,-0.37733 4.98455,-1.60273 5.44719,-2.72847 0.50283,-1.22356 1.20288,-1.85843 4.42931,-4.01693 6.46355,-4.32414 14.51267,-8.54777 16.53032,-8.67399 0.69574,-0.0435 1.52728,-0.2238 1.84789,-0.40063 0.94681,-0.5222 4.78269,-4.74818 6.0998,-6.72013 0.67023,-1.00346 2.00333,-2.84037 2.96244,-4.08203 0.95911,-1.24166 2.19228,-2.99283 2.74037,-3.89149 0.5481,-0.89865 1.9579,-2.69918 3.1329,-4.00116 2.71389,-3.00716 5.73631,-6.95042 6.474,-8.4464 1.10953,-2.25006 1.58179,-4.50079 1.54699,-7.37267 -0.0341,-2.81264 0.46478,-5.73854 1.23746,-7.25772 0.57509,-1.13069 0.8311,-1.08098 1.17712,0.22857 l 0.28684,1.08556 0.37313,-0.86845 c 0.8983,-2.09074 0.60601,-7.96081 -0.39639,-7.96081 -0.19801,0 -0.70446,0.8926 -1.12545,1.98355 -0.96581,2.50286 -2.30932,4.67458 -2.89185,4.67458 -0.58579,0 -1.27301,-1.7038 -1.27301,-3.1561 0,-1.29985 -0.70078,-4.97953 -1.1769,-6.17975 -0.1737,-0.43785 -0.48043,-0.79608 -0.68164,-0.79608 -0.20121,0 -0.82608,-0.65134 -1.38861,-1.44742 -0.56252,-0.79608 -1.20602,-1.44742 -1.43,-1.44742 -0.9213,0 -2.45497,2.17202 -3.57707,5.06597 -2.72561,7.02941 -6.43862,13.19242 -13.08033,21.71129 -1.98612,2.54746 -4.45083,5.73902 -5.47714,7.09236 -2.26637,2.98851 -9.12994,10.25365 -11.49388,12.16634 -0.94514,0.76473 -3.12329,2.18534 -4.84032,3.15692 -5.50616,3.11565 -10.69606,4.88263 -19.6359,6.68536 -2.50558,0.50525 -4.80074,1.05182 -5.10035,1.21459 -0.52262,0.28392 -0.51683,0.31817 0.14236,0.84305 0.67321,0.53604 0.67593,0.55583 0.13443,0.97772 -0.30398,0.23683 -0.69476,0.4306 -0.86841,0.4306 -0.6374,0 -0.98722,0.63953 -0.67464,1.23337 0.20968,0.39833 0.20574,0.65927 -0.0133,0.882 -0.82287,0.83662 0.0872,1.15178 1.80669,0.62564 0.7254,-0.22196 3.01208,-0.59774 5.08151,-0.83506 5.19528,-0.59579 7.0693,-0.18623 6.47082,1.41419 -0.2961,0.79182 0.14562,1.60109 0.87392,1.60109 0.31033,0 0.64677,0.21868 0.74765,0.48596 0.20241,0.53627 -1.132,1.85638 -3.25451,3.21962 -0.66914,0.42978 -1.21686,0.99496 -1.21714,1.25595 -0.002,1.9728 4.75359,3.03638 10.05372,2.24843 z m -19.02305,-10.39428 c 0.0968,-0.15922 0.48872,-0.28949 0.87097,-0.28949 0.38226,0 0.69501,0.13027 0.69501,0.28949 0,0.15921 -0.39194,0.28948 -0.87098,0.28948 -0.50814,0 -0.79767,-0.12059 -0.695,-0.28948 z m 28.04601,-6.36213 c -1.00555,-0.64629 1.05844,-2.97755 6.55317,-7.40174 5.73495,-4.6176 10.24496,-7.02629 10.24496,-5.47158 0,2.53815 -6.16793,8.88504 -11.10094,11.42302 -1.62633,0.83673 -3.96453,1.68605 -4.70128,1.70768 -0.3132,0.009 -0.76136,-0.10663 -0.99591,-0.25738 z m -40.14681,9.58189 c 0,-0.13971 -0.21317,-0.43282 -0.47371,-0.65133 -0.42953,-0.36026 -0.44187,-0.33658 -0.13234,0.25404 0.35303,0.67361 0.60605,0.83948 0.60605,0.39729 z m 8.19747,-9.45813 c 0.67195,-0.36325 1.12039,-0.71652 0.99653,-0.78504 -0.51649,-0.28577 -7.7743,-1.46413 -7.94555,-1.29002 -0.36682,0.37295 0.8098,1.7134 1.9769,2.25216 1.55786,0.71915 3.4381,0.65217 4.97212,-0.1771 z m 58.57448,-2.49168 c 1.19238,-0.87588 2.98677,-3.08313 2.9796,-3.66517 -0.004,-0.31431 -0.58399,0.12865 -1.63716,1.25009 -0.89715,0.95529 -2.01556,2.02276 -2.48535,2.37215 -0.73713,0.54821 -0.7756,0.63747 -0.28072,0.65134 0.31541,0.009 0.95604,-0.26494 1.42363,-0.60841 z m -62.66171,-4.78876 c -1.63243,-2.83209 -3.54079,-6.77169 -3.54079,-7.30955 0,-0.30761 -0.12813,-0.63979 -0.28473,-0.7382 -0.45158,-0.28376 -0.34078,3.03206 0.15843,4.7412 0.47424,1.6236 1.97163,3.55634 3.29391,4.25155 1.18914,0.6252 1.22537,0.53346 0.37318,-0.945 z m 11.34668,-0.82343 c -2.11357,-1.07084 -2.40395,-1.95977 -2.02599,-6.20201 0.22538,-2.52967 0.21083,-3.42378 -0.0642,-3.9463 -0.72198,-1.37158 1.12287,-5.57865 4.64895,-10.60166 4.39128,-6.2555 10.23216,-12.55655 13.24782,-14.29152 6.67771,-3.84181 9.33403,-5.29556 12.71405,-6.95813 3.65494,-1.79779 4.16886,-1.9703 6.40631,-2.15041 2.41257,-0.19421 3.42912,-0.43879 3.42912,-0.82501 0,-0.42019 -0.70961,-0.89538 -1.33707,-0.89538 -0.87601,0 -3.92732,1.0767 -5.41793,1.91181 -2.56924,1.43939 -5.95102,1.78616 -7.00166,0.71796 -0.4743,-0.48223 1.05632,-1.9124 2.83009,-2.64435 0.84186,-0.3474 1.53066,-0.806 1.53066,-1.01912 0,-0.35091 -1.4728,-0.82419 -2.14579,-0.68954 -1.62345,0.32482 -0.8671,-0.68932 0.95762,-1.28402 0.73179,-0.2385 2.48367,-0.64589 3.89305,-0.90531 1.76831,-0.32548 2.76614,-0.66508 3.21947,-1.09569 0.53021,-0.50364 1.12161,-0.65316 3.06569,-0.77509 1.32482,-0.0831 2.41897,-0.28134 2.43145,-0.44056 0.0513,-0.65526 -2.14553,-1.06962 -4.74172,-0.89435 -5.53632,0.37377 -10.54711,2.37705 -19.20766,7.6791 -2.27068,1.39013 -5.05977,3.0774 -6.19798,3.74951 -4.95646,2.92674 -12.79557,10.25007 -15.22761,14.22568 -1.65539,2.70605 -2.0148,3.73137 -2.58497,7.37431 -0.62587,3.99885 -0.82627,6.8705 -0.5129,7.34975 0.21925,0.33532 0.43121,0.29856 1.25186,-0.21711 0.54336,-0.34143 1.13428,-0.62078 1.31315,-0.62078 0.17887,0 0.96453,-0.45688 1.74592,-1.01528 0.78139,-0.5584 1.4207,-0.94245 1.4207,-0.85344 0,0.089 -0.24693,0.6436 -0.54875,1.2324 -0.30181,0.5888 -0.94178,1.93192 -1.42216,2.9847 -0.75618,1.65723 -0.96067,1.8972 -1.52346,1.78782 -0.84513,-0.16426 -1.75138,0.81076 -1.50051,1.61439 0.0998,0.31976 0.46256,0.6222 0.80611,0.67209 0.50239,0.073 0.66149,0.34561 0.81307,1.39339 0.19677,1.36019 1.33217,3.71334 2.35285,4.87636 0.90089,1.02651 1.98855,1.49228 3.48478,1.49228 h 1.3513 z m 9.0294,-34.06293 c 0,-0.94945 3.63112,-4.43717 5.54905,-5.32991 3.5906,-1.67131 3.49243,0.39011 -0.16714,3.50961 -2.71435,2.31378 -5.38191,3.21601 -5.38191,1.8203 z m -6.92208,31.37696 c 0.23325,-1.19936 0.2079,-1.40292 -0.17521,-1.40673 -0.24635,-0.002 -0.54205,0.13867 -0.6571,0.3136 -0.34607,0.52622 -0.24431,1.81706 0.17085,2.16738 0.31523,0.26598 0.44034,0.0628 0.66146,-1.07425 z m 28.4188,-8.19422 c 1.95296,-1.67138 4.69795,-4.58293 4.69795,-4.98303 0,-0.14818 -0.73672,0.52056 -1.63716,1.48607 -0.90045,0.96551 -2.40593,2.47864 -3.34552,3.3625 -2.12924,2.00296 -1.9806,2.07315 0.28473,0.13446 z m -28.94457,-0.25217 c 0.35682,-0.4907 0.97045,-1.76614 1.36361,-2.83432 0.39317,-1.06819 1.06832,-2.33296 1.50033,-2.81061 0.43201,-0.47764 1.41164,-1.91059 2.17698,-3.18432 1.8598,-3.09525 3.48902,-4.66982 6.39308,-6.17861 1.33108,-0.69157 2.85201,-1.58948 3.37982,-1.99536 0.81616,-0.62761 0.89067,-0.77723 0.49827,-1.0005 -1.28875,-0.73328 0.22437,-3.50293 3.13391,-5.73637 1.77008,-1.35876 3.4254,-2.03912 5.14613,-2.1151 1.62736,-0.0719 2.08712,0.42036 1.44883,1.55111 -0.58369,1.03401 -0.27742,1.08072 1.13364,0.17288 0.58389,-0.37565 1.66786,-1.03108 2.40882,-1.4565 1.49194,-0.85659 1.92713,-1.46739 1.92713,-2.70479 0,-2.48301 -2.155,-1.97127 -9.11119,2.16361 -1.95748,1.16355 -4.07039,2.25618 -4.69535,2.42805 -1.41357,0.38876 -2.15924,0.91133 -5.5595,3.89612 -3.84543,3.37557 -5.97282,5.93445 -8.13176,9.78111 -1.68936,3.01 -1.86244,3.46453 -1.69741,4.45767 0.19845,1.19419 -0.2833,1.92801 -1.40268,2.13662 -0.30769,0.0573 -0.85829,0.55515 -1.22356,1.10624 -1.41427,2.1337 -0.16336,4.35044 1.3109,2.32307 z m 5.91949,-5.79555 c 0.41664,-0.6401 0.67082,-1.25197 0.56486,-1.3597 -0.26225,-0.26664 -1.49543,1.06686 -1.73132,1.87218 -0.3065,1.04632 0.33542,0.76429 1.16646,-0.51248 z m 7.167,-6.44892 c 1.35471,-1.42107 1.10004,-1.84781 -0.37123,-0.62206 -0.7047,0.58709 -1.28126,1.18202 -1.28126,1.32205 0,0.54357 0.78333,0.21174 1.65249,-0.69999 z m 22.47792,-15.7377 c 0.19575,-0.0803 0.35591,-0.26542 0.35591,-0.41137 0,-0.41982 -0.74902,-0.30876 -1.1389,0.16887 -0.28593,0.35029 -0.27891,0.42981 0.0363,0.41137 0.21492,-0.0126 0.55093,-0.0886 0.74667,-0.16887 z m 8.04505,-3.85806 c -0.36189,-0.6875 -1.84888,-1.52175 -2.48745,-1.39553 -0.28606,0.0566 0.0975,0.43862 1.03457,1.03068 1.74351,1.10153 1.85546,1.12964 1.45288,0.36485 z m -5.12662,-0.58196 c 0,-0.15922 -0.32788,-0.28948 -0.72861,-0.28948 -0.41324,0 -0.65245,0.1253 -0.55265,0.28948 0.0968,0.15922 0.42466,0.28948 0.72862,0.28948 0.30395,0 0.55264,-0.13026 0.55264,-0.28948 z m 7.68757,-9.21862 c 0,-0.26854 -0.75268,-0.98139 -1.42362,-1.34828 -0.2349,-0.12845 -0.0508,0.1774 0.40917,0.67967 0.89086,0.97285 1.01445,1.0543 1.01445,0.66861 z m 6.79498,-4.40847 c 0.62036,-0.25254 0.64084,-0.324 0.26002,-0.90713 -0.22736,-0.34815 -0.90803,-0.89399 -1.51259,-1.21297 -1.22504,-0.64637 -4.40351,-1.01696 -4.40351,-0.51344 0,0.43271 1.62416,1.64536 3.14007,2.34448 1.42777,0.65848 1.56875,0.67467 2.51601,0.28906 z"
           id="path612" /><path
           style="fill:#050859;stroke-width:0.287094"
           d="m 139.77195,184.90066 c 1.19139,-0.2387 2.91004,-1.24177 2.91004,-1.69841 0,-0.34067 3.78099,-3.20057 6.54866,-4.95333 8.2951,-5.25329 14.70162,-8.80601 18.07069,-10.02105 2.0131,-0.72602 3.47409,-1.78596 4.81439,-3.49282 3.14917,-4.01045 5.03644,-6.54321 6.24719,-8.3839 0.71378,-1.08513 2.59547,-3.47105 4.18155,-5.30203 2.81124,-3.24534 5.12402,-6.3564 5.12402,-6.89266 0,-0.14646 0.51479,-1.03292 1.14398,-1.9699 1.45732,-2.17024 1.98799,-3.98627 1.98799,-6.80319 0,-3.42916 1.24094,-8.5791 2.09517,-8.695 0.17874,-0.0243 0.51718,-0.0568 0.75208,-0.0724 0.72246,-0.0478 0.74766,-4.22579 0.0255,-4.22579 -0.13661,0 -0.46359,0.55363 -0.72662,1.2303 -0.70408,1.81132 -2.5833,4.64055 -3.57992,5.3897 -0.47845,0.35965 -1.15064,0.61306 -1.49375,0.56313 -0.83109,-0.12094 -1.0213,-1.30009 -1.04219,-6.46071 l -0.0164,-4.05407 -1.07396,-1.88036 c -1.81926,-3.18528 -2.55523,-2.72319 -5.32507,3.34347 -3.22878,7.07183 -5.38209,10.83322 -9.73498,17.00494 -8.10673,11.49409 -15.4941,19.83777 -21.344,24.107 -5.08507,3.71106 -14.3068,7.49666 -21.5177,8.83318 -3.65832,0.67806 -4.56016,1.0855 -3.97889,1.7976 0.19533,0.23929 0.31862,0.60098 0.27398,0.80374 -0.18182,0.82576 1.27398,1.15823 4.90151,1.11939 5.20732,-0.0558 5.60983,-0.0244 6.10124,0.47522 0.24609,0.25019 0.44743,0.87255 0.44743,1.383 0,0.51046 0.20433,1.22471 0.45407,1.58722 0.69652,1.01105 0.28615,1.90726 -1.52334,3.32676 -2.10257,1.64944 -2.70533,2.34571 -2.58421,2.98515 0.18584,0.9811 4.8842,1.55232 7.86156,0.95579 z m 8.48545,-15.2108 c -1.4795,-0.57723 0.49136,-3.08688 5.81357,-7.40288 5.68072,-4.60672 10.1708,-7.47457 11.70263,-7.47457 1.07829,0 1.07444,0.55847 -0.0192,2.78363 -2.09243,4.25731 -8.59105,9.66603 -13.90514,11.57305 -1.96101,0.70373 -2.8081,0.82655 -3.59185,0.52077 z m -26.36032,-9.48665 c 0,-0.0602 -0.18619,-0.56245 -0.41376,-1.1162 -0.68668,-1.67094 -0.85489,-5.84834 -0.3273,-8.12823 0.25099,-1.08459 0.45234,-2.19186 0.44745,-2.46061 -0.0114,-0.62936 -1.30665,1.49146 -1.73469,2.84043 -0.17682,0.55726 -0.50955,1.23241 -0.7394,1.50035 -0.28787,0.33556 -0.35853,0.78597 -0.22708,1.44742 0.22244,1.1193 1.78777,5.13545 2.20774,5.66438 0.26643,0.33554 0.78704,0.50255 0.78704,0.25246 z m 3.98927,-11.54234 c 0.70711,-1.17912 0.71636,-1.66453 0.0317,-1.66453 -0.68793,0 -1.1249,0.5477 -1.35002,1.69212 -0.24737,1.25751 0.55773,1.24065 1.31828,-0.0276 z m -7.33455,-1.6769 c 0.71936,-0.48445 1.75011,-1.37844 2.29055,-1.98665 1.25615,-1.41365 1.56368,-1.59673 2.02632,-1.20635 0.41979,0.35421 1.23385,-0.55414 3.74299,-4.17647 1.98824,-2.87033 7.74348,-9.59053 9.58962,-11.19746 2.22421,-1.93602 4.81196,-3.7054 7.76197,-5.30728 1.40938,-0.76531 3.4594,-1.91877 4.55559,-2.56324 l 1.99307,-1.17177 -1.24044,-0.21935 c -1.33176,-0.2355 -2.03389,-0.66838 -2.03389,-1.25395 0,-0.35981 1.37466,-1.70762 3.00813,-2.94937 l 0.83565,-0.63526 -0.90855,-0.0161 c -1.72672,-0.0306 -1.46856,-1.03101 0.5341,-2.06976 0.59799,-0.31018 2.33626,-0.86464 3.86283,-1.23213 4.21525,-1.01477 6.3951,-2.21845 4.00245,-2.21011 -3.03446,0.0106 -8.89219,2.144 -13.76635,5.01377 -5.73094,3.37422 -12.20923,7.49495 -14.36196,9.13541 -4.78911,3.64946 -9.74165,9.12279 -11.53031,12.7428 -1.04406,2.11304 -2.11839,6.5529 -2.33444,9.64754 -0.20641,2.9565 -0.0962,3.04899 1.97267,1.65572 z m 14.23685,-19.52779 c -0.25709,-2.11618 6.91925,-7.6791 8.90622,-6.90389 0.97753,0.38139 0.43493,1.59646 -1.64659,3.68731 -3.24894,3.26351 -7.04936,4.94739 -7.25963,3.21658 z m -3.97082,15.83866 c 0.77103,-0.86621 1.70712,-3.27434 1.39583,-3.59083 -0.40957,-0.41642 -2.62208,2.79352 -2.62208,3.80415 0,0.47979 0.72095,0.35438 1.22625,-0.21332 z m 3.91412,-5.73755 c 0.53966,-0.57421 2.07815,-1.7986 3.41887,-2.72087 2.12393,-1.46103 2.48358,-1.8327 2.79453,-2.88788 0.19627,-0.66608 0.60433,-1.62367 0.90679,-2.128 1.21506,-2.02601 0.54168,-1.8132 -2.49907,0.78979 -3.51408,3.00818 -6.56852,6.69119 -6.24972,7.53585 0.25364,0.67203 0.54129,0.56802 1.6286,-0.58889 z m 21.89811,-14.57758 c 0.68233,-0.69373 0.67719,-1.68036 -0.011,-2.11868 -0.32874,-0.20937 -0.95589,-0.0394 -2.34898,0.63656 -1.04528,0.50721 -1.90051,1.02865 -1.90051,1.15877 0,0.13012 0.48047,0.31628 1.06771,0.41368 0.58725,0.0974 1.40753,0.25757 1.82285,0.35593 0.55388,0.13118 0.91898,0.0122 1.36995,-0.44626 z m 22.50361,-20.21651 c 0,-0.45902 -0.69738,-0.92635 -1.38233,-0.92635 -0.68096,0 -0.6857,0.0149 -0.18365,0.57897 0.50562,0.56804 1.56598,0.80326 1.56598,0.34738 z"
           id="path614" /></g><g
         id="g630"
         transform="matrix(1.2350665,0,0,1.2350665,36.12389,-32.518051)"
         inkscape:label="main text"><text
           xml:space="preserve"
           transform="matrix(0.26458333,0,0,0.26458333,-10.990575,20.040281)"
           id="text620"
           style="font-style:normal;font-variant:normal;font-weight:bold;font-stretch:normal;font-size:133.333px;line-height:1;font-family:Orbitron;-inkscape-font-specification:'Orbitron Bold';white-space:pre;shape-inside:url(#rect640);display:inline;fill:#00fdff;fill-opacity:0.812367;stroke-width:1.13386;stroke-linecap:square;stroke-linejoin:bevel"><tspan
             x="183.45898"
             y="513.72621"
             id="tspan1932">GRAPHION</tspan></text><text
           xml:space="preserve"
           transform="matrix(0.26458333,0,0,0.26458333,-13.738406,17.534909)"
           id="text624"
           style="font-style:normal;font-variant:normal;font-weight:bold;font-stretch:normal;font-size:133.333px;line-height:1;font-family:Orbitron;-inkscape-font-specification:'Orbitron Bold';white-space:pre;shape-inside:url(#rect642);display:inline;fill:#ff37ff;fill-opacity:0.812367;stroke-width:1.13386;stroke-linecap:square;stroke-linejoin:bevel"><tspan
             x="183.45898"
             y="513.72621"
             id="tspan1934">GRAPHION</tspan></text><text
           xml:space="preserve"
           transform="matrix(0.26458333,0,0,0.26458333,-12.326023,18.768361)"
           id="text628"
           style="font-style:normal;font-variant:normal;font-weight:bold;font-stretch:normal;font-size:133.333px;line-height:1;font-family:Orbitron;-inkscape-font-specification:'Orbitron Bold';white-space:pre;shape-inside:url(#rect644);display:inline;fill:#000a1d;fill-opacity:1;stroke-width:1.13386;stroke-linecap:square;stroke-linejoin:bevel"><tspan
             x="183.45898"
             y="513.72621"
             id="tspan1936">GRAPHION</tspan></text></g></g></g></svg>
